<svg id="svg" version="1.1" xmlns="http://www.w3.org/2000/svg" xmlns:xlink="http://www.w3.org/1999/xlink" width="400" height="400" viewBox="0, 0, 400,400"><g id="svgg"><path id="path0" d="M193.141 94.192 C 193.010 94.324,191.214 94.604,189.151 94.816 C 180.434 95.709,174.915 96.791,163.962 99.753 C 142.033 105.681,128.206 119.543,131.953 131.840 C 132.148 132.478,132.541 133.810,132.826 134.800 C 133.416 136.844,136.094 142.424,136.882 143.252 C 139.505 146.006,140.325 156.400,137.920 156.400 C 137.744 156.400,137.600 156.623,137.600 156.895 C 137.600 157.168,136.109 158.833,134.286 160.595 C 132.174 162.638,130.633 164.525,130.036 165.800 C 129.158 167.673,128.935 168.202,128.055 170.500 C 127.261 172.576,126.800 174.318,126.800 175.248 C 126.800 175.794,126.638 176.411,126.441 176.620 C 126.244 176.829,125.968 177.810,125.829 178.800 C 125.027 184.510,124.799 186.593,124.582 190.200 C 124.450 192.400,124.272 194.422,124.186 194.693 C 123.780 195.980,121.600 193.341,121.600 191.562 C 121.600 191.169,121.420 190.736,121.200 190.600 C 120.980 190.464,120.800 189.679,120.800 188.856 C 120.800 188.033,120.638 187.189,120.441 186.980 C 120.244 186.771,119.985 185.880,119.867 185.000 C 119.749 184.120,119.448 182.500,119.200 181.400 C 118.952 180.300,118.651 178.724,118.532 177.897 C 118.413 177.071,118.155 176.295,117.958 176.174 C 117.761 176.052,117.600 175.571,117.600 175.105 C 117.600 174.204,116.935 171.861,116.351 170.705 C 116.158 170.323,116.000 169.842,116.000 169.637 C 116.000 169.431,115.595 168.349,115.100 167.232 C 114.027 164.811,113.535 164.721,110.590 166.406 C 102.518 171.024,100.736 179.463,105.649 189.800 C 106.172 190.900,106.735 191.860,106.900 191.933 C 107.065 192.007,107.200 192.244,107.200 192.461 C 107.200 195.533,121.823 208.400,125.313 208.400 C 126.302 208.400,127.949 210.159,128.574 211.884 C 131.167 219.034,132.593 222.358,136.261 229.800 C 140.557 238.518,141.710 240.653,143.650 243.472 C 144.282 244.392,144.800 245.322,144.800 245.539 C 144.800 245.756,144.935 245.993,145.100 246.067 C 145.265 246.140,146.375 247.640,147.566 249.400 C 149.604 252.411,153.302 257.246,154.888 258.975 C 155.280 259.402,155.600 259.918,155.600 260.121 C 155.600 262.580,171.620 275.408,178.904 278.783 C 186.323 282.219,192.145 283.598,199.200 283.589 C 213.841 283.570,227.492 276.989,241.015 263.430 C 246.068 258.364,251.600 251.705,251.600 250.690 C 251.600 250.477,252.384 249.199,253.342 247.851 C 255.399 244.956,258.400 240.056,258.400 239.592 C 258.400 239.413,258.535 239.207,258.700 239.133 C 259.274 238.878,266.800 223.936,266.800 223.051 C 266.800 222.945,267.399 221.540,268.131 219.929 C 268.863 218.318,269.969 215.560,270.589 213.800 C 271.833 210.271,272.549 209.200,273.667 209.200 C 274.076 209.200,274.723 209.035,275.105 208.834 C 275.487 208.632,276.430 208.177,277.200 207.823 C 281.635 205.781,286.270 202.108,290.500 197.284 C 291.325 196.343,292.000 195.433,292.000 195.262 C 292.000 195.091,292.315 194.601,292.700 194.173 C 293.933 192.803,295.592 189.537,297.257 185.200 C 299.701 178.831,296.613 169.717,291.011 166.770 L 289.167 165.800 287.413 167.800 C 286.449 168.900,285.266 170.700,284.784 171.800 C 284.303 172.900,283.749 174.113,283.554 174.495 C 283.359 174.877,283.200 175.606,283.200 176.115 C 283.200 176.624,283.038 177.211,282.841 177.420 C 282.488 177.794,282.185 179.452,281.748 183.400 C 281.626 184.500,281.363 185.571,281.163 185.780 C 280.963 185.989,280.800 186.936,280.800 187.884 C 280.800 190.049,279.505 192.846,277.552 194.899 C 275.059 197.519,275.019 197.380,274.967 185.955 C 274.936 179.126,274.769 175.490,274.460 174.913 C 274.207 174.440,274.000 173.421,274.000 172.650 C 274.000 171.878,273.820 171.136,273.600 171.000 C 273.380 170.864,273.200 170.409,273.200 169.989 C 273.200 169.007,271.965 166.808,269.767 163.877 C 265.443 158.110,266.157 152.523,272.833 139.905 C 273.035 139.523,273.200 138.859,273.200 138.429 C 273.200 137.999,273.380 137.536,273.600 137.400 C 273.820 137.264,274.000 136.637,274.000 136.007 C 274.000 135.377,274.210 133.952,274.466 132.841 C 274.938 130.798,274.720 128.963,273.489 124.600 C 272.214 120.083,266.388 112.728,262.060 110.172 C 261.367 109.762,260.800 109.286,260.800 109.114 C 260.800 108.941,260.607 108.800,260.372 108.800 C 260.137 108.800,259.192 108.292,258.272 107.670 C 253.961 104.758,240.424 99.325,234.100 97.968 C 233.055 97.744,231.480 97.380,230.600 97.159 C 226.837 96.212,223.428 95.600,217.200 94.753 C 213.830 94.294,193.513 93.821,193.141 94.192 M156.278 264.255 C 155.417 265.116,156.521 282.510,157.595 285.000 C 157.917 285.746,158.114 286.535,158.670 289.300 C 158.791 289.905,159.050 290.400,159.245 290.400 C 159.440 290.400,159.600 290.839,159.600 291.376 C 159.600 291.913,159.780 292.464,160.000 292.600 C 160.220 292.736,160.400 293.197,160.400 293.624 C 160.400 294.051,160.580 294.400,160.800 294.400 C 161.020 294.400,161.200 294.653,161.200 294.962 C 161.200 295.628,162.868 298.941,163.300 299.133 C 163.465 299.207,163.600 299.444,163.600 299.661 C 163.600 299.878,164.140 300.841,164.800 301.800 C 165.460 302.759,166.000 303.722,166.000 303.939 C 166.000 304.156,166.148 304.393,166.328 304.467 C 166.509 304.540,167.099 305.259,167.641 306.065 C 169.693 309.116,175.690 315.541,178.893 318.119 C 179.931 318.954,181.010 319.854,181.290 320.119 C 181.571 320.383,182.880 321.410,184.200 322.400 C 185.520 323.390,186.660 324.335,186.733 324.500 C 186.807 324.665,187.122 324.800,187.433 324.800 C 187.745 324.800,188.000 324.980,188.000 325.200 C 188.000 325.420,188.270 325.600,188.600 325.600 C 188.930 325.600,189.200 325.750,189.200 325.932 C 189.200 326.115,189.695 326.520,190.300 326.832 C 190.905 327.144,191.490 327.502,191.600 327.628 C 191.710 327.754,193.774 328.987,196.187 330.368 L 200.574 332.878 205.587 330.348 C 208.344 328.957,210.660 327.680,210.733 327.510 C 210.807 327.339,211.212 327.200,211.633 327.200 C 212.055 327.200,212.400 327.041,212.400 326.847 C 212.400 326.652,212.715 326.393,213.100 326.271 C 214.036 325.975,216.166 324.676,216.333 324.300 C 216.407 324.135,216.722 324.000,217.033 324.000 C 217.345 324.000,217.600 323.820,217.600 323.600 C 217.600 323.380,217.870 323.200,218.200 323.200 C 218.530 323.200,218.800 323.020,218.800 322.800 C 218.800 322.580,219.070 322.400,219.400 322.400 C 219.730 322.400,220.000 322.250,220.000 322.068 C 220.000 321.885,220.492 321.480,221.094 321.168 C 221.696 320.855,222.461 320.385,222.794 320.122 C 223.127 319.860,224.570 318.790,226.000 317.746 C 228.903 315.626,237.338 307.365,238.810 305.200 C 239.333 304.430,239.874 303.710,240.011 303.600 C 240.531 303.183,243.491 298.544,244.031 297.300 C 244.341 296.585,244.731 296.000,244.898 296.000 C 245.064 296.000,245.200 295.730,245.200 295.400 C 245.200 294.578,245.212 294.574,241.496 296.572 C 239.683 297.547,236.580 298.876,234.600 299.527 C 231.117 300.670,229.887 301.001,225.200 302.053 C 221.945 302.784,209.011 302.664,205.000 301.865 C 196.671 300.206,193.589 299.166,186.255 295.538 C 174.367 289.657,164.261 279.480,158.203 267.288 C 157.297 265.467,156.432 264.102,156.278 264.255 M164.986 338.416 C 164.287 339.188,164.239 340.679,164.086 366.466 C 163.904 397.077,163.910 397.200,165.625 397.200 C 166.271 397.200,166.800 397.389,166.800 397.621 C 166.800 397.877,167.621 397.995,168.900 397.921 L 171.000 397.800 171.000 368.317 C 171.000 339.302,170.987 338.825,170.200 338.230 C 168.981 337.309,165.888 337.419,164.986 338.416 M228.472 338.603 L 227.600 339.606 227.600 369.203 C 227.600 395.245,227.672 398.800,228.200 398.800 C 228.530 398.800,228.800 398.620,228.800 398.400 C 228.800 398.180,229.415 398.000,230.167 398.000 C 230.918 398.000,231.625 397.775,231.736 397.500 C 231.889 397.122,232.052 397.147,232.400 397.600 C 232.748 398.053,232.911 398.078,233.064 397.700 C 233.175 397.425,233.612 397.200,234.033 397.200 C 235.287 397.200,235.227 340.250,233.971 338.654 C 232.794 337.158,229.753 337.130,228.472 338.603 " stroke="none" fill="#fbe9ba" fill-rule="evenodd"></path><path id="path1" d="M268.572 220.900 C 267.727 223.596,260.092 239.141,259.190 240.000 C 259.075 240.110,258.535 241.055,257.991 242.100 C 257.447 243.145,256.866 244.000,256.701 244.000 C 256.535 244.000,256.400 244.188,256.400 244.418 C 256.400 244.648,255.500 246.170,254.400 247.800 L 252.400 250.764 252.400 262.776 C 252.400 270.101,252.228 275.532,251.959 276.694 C 251.031 280.709,250.852 281.453,250.391 283.200 C 248.710 289.573,245.100 298.505,243.599 300.000 C 243.489 300.110,243.144 300.695,242.832 301.300 C 242.520 301.905,242.115 302.400,241.932 302.400 C 241.750 302.400,241.600 302.636,241.600 302.925 C 241.600 303.213,241.283 303.798,240.896 304.225 C 240.509 304.651,239.564 305.807,238.796 306.793 C 235.370 311.192,229.145 316.930,224.000 320.431 C 222.570 321.404,221.340 322.335,221.267 322.500 C 221.193 322.665,220.912 322.800,220.642 322.800 C 220.372 322.800,219.793 323.115,219.355 323.500 C 218.608 324.157,218.135 324.459,215.900 325.700 C 215.405 325.975,214.910 326.290,214.800 326.401 C 214.690 326.511,214.060 326.871,213.400 327.200 C 212.740 327.529,212.110 327.889,212.000 327.999 C 211.746 328.254,209.240 329.595,204.358 332.089 L 200.516 334.051 199.111 333.262 C 198.339 332.829,196.558 331.771,195.153 330.913 C 193.749 330.054,192.159 329.092,191.620 328.776 C 191.082 328.459,190.283 327.885,189.845 327.500 C 189.407 327.115,188.828 326.800,188.558 326.800 C 188.288 326.800,188.007 326.655,187.933 326.477 C 187.860 326.299,186.904 325.542,185.809 324.795 C 184.714 324.048,183.544 323.217,183.209 322.950 C 174.702 316.155,168.432 309.513,164.189 302.800 C 162.549 300.204,160.000 295.182,160.000 294.545 C 160.000 294.245,159.820 294.000,159.600 294.000 C 159.380 294.000,159.200 293.651,159.200 293.224 C 159.200 292.797,159.020 292.336,158.800 292.200 C 158.580 292.064,158.400 291.524,158.400 291.000 C 158.400 290.476,158.241 289.949,158.046 289.829 C 157.851 289.708,157.593 289.113,157.471 288.505 C 157.349 287.897,157.046 286.590,156.797 285.600 C 155.750 281.436,155.514 278.924,155.335 270.031 L 155.146 260.662 151.957 256.698 C 149.185 253.252,147.970 251.597,146.200 248.862 C 145.980 248.522,145.485 247.885,145.100 247.446 C 144.715 247.008,144.400 246.413,144.400 246.125 C 144.400 245.836,144.241 245.600,144.047 245.600 C 143.852 245.600,143.593 245.285,143.471 244.900 C 143.236 244.158,141.957 241.937,141.571 241.600 C 141.445 241.490,141.224 241.130,141.080 240.800 C 140.936 240.470,140.276 239.300,139.614 238.200 C 138.952 237.100,137.203 233.725,135.727 230.700 C 134.251 227.675,132.944 225.201,132.822 225.201 C 129.481 225.223,115.866 242.379,111.872 251.600 C 109.128 257.936,106.618 271.407,107.391 275.649 C 107.526 276.392,107.807 278.710,108.014 280.800 C 108.409 284.785,108.843 287.397,109.609 290.400 C 109.862 291.390,110.098 292.704,110.134 293.320 C 110.209 294.600,110.545 294.375,103.000 298.100 C 100.140 299.512,96.567 301.417,95.059 302.334 C 93.552 303.250,92.157 304.000,91.959 304.000 C 91.762 304.000,91.600 304.158,91.600 304.351 C 91.600 304.545,91.060 304.927,90.400 305.200 C 89.740 305.473,89.200 305.855,89.200 306.049 C 89.200 306.242,88.964 306.400,88.675 306.400 C 88.387 306.400,87.799 306.728,87.370 307.128 C 86.940 307.528,84.611 309.173,82.194 310.782 C 76.527 314.555,73.760 316.899,69.589 321.458 C 65.578 325.843,61.079 332.928,59.149 337.900 C 58.957 338.395,58.594 339.242,58.342 339.782 C 57.820 340.902,58.860 343.057,59.679 342.551 C 59.948 342.385,60.011 342.459,59.839 342.737 C 59.682 342.991,59.815 343.572,60.134 344.027 C 60.557 344.631,60.772 344.713,60.926 344.328 C 61.061 343.990,61.148 344.062,61.168 344.529 C 61.208 345.435,62.137 346.400,62.971 346.400 C 63.317 346.400,63.600 346.676,63.600 347.013 C 63.600 347.349,63.915 347.745,64.300 347.891 C 64.685 348.037,66.037 349.202,67.305 350.478 C 68.572 351.755,69.795 352.800,70.022 352.800 C 70.823 352.800,73.263 355.174,72.963 355.661 C 72.847 355.847,72.951 356.000,73.193 356.000 C 73.435 356.000,74.006 356.347,74.461 356.771 C 74.916 357.194,75.538 357.445,75.844 357.328 C 76.535 357.063,76.588 357.847,75.900 358.163 C 75.625 358.289,75.790 358.297,76.268 358.180 C 76.900 358.024,77.206 358.188,77.395 358.783 C 77.545 359.258,78.000 359.600,78.480 359.600 C 79.273 359.600,80.800 360.957,80.800 361.661 C 80.800 361.848,81.072 362.000,81.404 362.000 C 81.736 362.000,82.572 362.540,83.263 363.200 C 83.954 363.860,84.762 364.400,85.059 364.400 C 85.357 364.400,85.600 364.580,85.600 364.800 C 85.600 365.020,85.888 365.200,86.240 365.200 C 86.591 365.200,87.383 365.740,88.000 366.400 C 88.617 367.060,89.343 367.600,89.614 367.600 C 89.884 367.600,90.442 367.988,90.853 368.461 C 91.295 368.970,91.600 369.109,91.600 368.800 C 91.600 368.503,91.946 368.676,92.400 369.200 C 92.840 369.707,93.200 370.275,93.200 370.461 C 93.200 370.648,93.650 370.800,94.200 370.800 C 94.750 370.800,95.200 370.980,95.200 371.200 C 95.200 371.420,95.590 371.600,96.067 371.600 C 96.543 371.600,96.817 371.717,96.674 371.859 C 96.531 372.002,96.803 372.456,97.278 372.868 C 97.933 373.436,98.216 373.497,98.450 373.120 C 98.676 372.754,98.829 372.811,99.030 373.334 C 99.180 373.726,99.535 373.957,99.819 373.848 C 100.102 373.739,100.432 373.906,100.552 374.219 C 100.673 374.536,101.041 374.682,101.385 374.550 C 101.723 374.421,102.000 374.514,102.000 374.757 C 102.000 375.001,102.360 375.200,102.800 375.200 C 103.240 375.200,103.600 375.380,103.600 375.600 C 103.600 375.820,103.870 376.000,104.200 376.000 C 104.530 376.000,104.800 376.180,104.800 376.400 C 104.800 376.620,105.070 376.800,105.400 376.800 C 105.730 376.800,106.000 376.980,106.000 377.200 C 106.000 377.420,106.360 377.600,106.800 377.600 C 107.240 377.600,107.600 377.780,107.600 378.000 C 107.600 378.220,107.960 378.400,108.400 378.400 C 108.840 378.400,109.200 378.580,109.200 378.800 C 109.200 379.020,109.560 379.200,110.000 379.200 C 110.440 379.200,110.800 379.380,110.800 379.600 C 110.800 379.820,111.160 380.000,111.600 380.000 C 112.040 380.000,112.400 380.180,112.400 380.400 C 112.400 380.620,112.760 380.800,113.200 380.800 C 113.640 380.800,114.000 380.980,114.000 381.200 C 114.000 381.420,114.360 381.600,114.800 381.600 C 115.240 381.600,115.600 381.780,115.600 382.000 C 115.600 382.220,116.010 382.400,116.512 382.400 C 117.013 382.400,117.683 382.760,118.000 383.200 C 118.339 383.670,119.035 384.000,119.688 384.000 C 120.300 384.000,120.800 384.180,120.800 384.400 C 120.800 384.620,121.340 384.800,122.000 384.800 C 122.660 384.800,123.200 384.980,123.200 385.200 C 123.200 385.420,123.560 385.600,124.000 385.600 C 124.440 385.600,124.800 385.780,124.800 386.000 C 124.800 386.220,125.239 386.400,125.776 386.400 C 126.313 386.400,126.864 386.580,127.000 386.800 C 127.136 387.020,127.597 387.200,128.024 387.200 C 128.451 387.200,128.800 387.380,128.800 387.600 C 128.800 387.820,129.340 388.000,130.000 388.000 C 130.660 388.000,131.200 388.180,131.200 388.400 C 131.200 388.620,131.661 388.800,132.224 388.800 C 132.858 388.800,133.145 388.965,132.979 389.235 C 132.810 389.507,133.063 389.640,133.655 389.590 C 135.151 389.466,135.445 389.580,134.800 390.038 C 134.351 390.357,134.627 390.415,135.900 390.270 C 137.223 390.119,137.600 390.208,137.600 390.670 C 137.600 391.117,137.887 391.201,138.762 391.008 C 139.428 390.862,140.035 390.934,140.186 391.177 C 140.329 391.409,140.977 391.600,141.624 391.600 C 142.271 391.600,142.800 391.780,142.800 392.000 C 142.800 392.220,143.340 392.400,144.000 392.400 C 144.660 392.400,145.200 392.580,145.200 392.800 C 145.200 393.020,145.920 393.200,146.800 393.200 C 147.680 393.200,148.400 393.380,148.400 393.600 C 148.400 393.820,149.131 394.000,150.024 394.000 C 151.004 394.000,151.549 394.158,151.400 394.400 C 151.251 394.642,151.796 394.800,152.776 394.800 C 153.669 394.800,154.400 394.980,154.400 395.200 C 154.400 395.420,155.210 395.600,156.200 395.600 C 157.190 395.600,158.000 395.780,158.000 396.000 C 158.000 396.220,158.885 396.400,159.967 396.400 C 161.165 396.400,162.013 396.595,162.136 396.900 C 163.021 399.080,163.188 394.466,163.194 367.742 L 163.200 339.285 164.339 338.065 C 166.357 335.905,168.843 335.905,170.861 338.065 L 172.000 339.285 172.000 369.042 L 172.000 398.800 174.567 398.800 C 176.264 398.800,177.190 398.969,177.300 399.300 C 177.431 399.692,182.369 399.800,200.200 399.800 C 218.031 399.800,222.969 399.692,223.100 399.300 C 223.202 398.995,223.996 398.800,225.133 398.800 L 227.000 398.800 227.000 368.765 L 227.000 338.730 228.119 337.768 C 230.269 335.919,232.475 336.013,234.503 338.041 L 235.703 339.241 235.556 346.521 C 235.475 350.524,235.452 363.565,235.504 375.500 L 235.600 397.200 236.800 397.200 C 237.460 397.200,238.000 397.020,238.000 396.800 C 238.000 396.580,238.900 396.400,240.000 396.400 C 241.100 396.400,242.000 396.220,242.000 396.000 C 242.000 395.780,242.810 395.600,243.800 395.600 C 244.790 395.600,245.600 395.420,245.600 395.200 C 245.600 394.980,246.331 394.800,247.224 394.800 C 248.204 394.800,248.749 394.642,248.600 394.400 C 248.451 394.158,248.996 394.000,249.976 394.000 C 250.869 394.000,251.600 393.820,251.600 393.600 C 251.600 393.380,252.320 393.200,253.200 393.200 C 254.080 393.200,254.800 393.020,254.800 392.800 C 254.800 392.580,255.340 392.400,256.000 392.400 C 256.660 392.400,257.200 392.220,257.200 392.000 C 257.200 391.780,257.729 391.600,258.376 391.600 C 259.023 391.600,259.671 391.409,259.814 391.177 C 259.965 390.934,260.572 390.862,261.238 391.008 C 262.149 391.208,262.400 391.123,262.400 390.614 C 262.400 390.086,262.667 390.014,263.816 390.229 C 264.901 390.433,265.205 390.367,265.116 389.947 C 265.039 389.586,265.305 389.442,265.900 389.525 C 266.395 389.594,266.800 389.459,266.800 389.225 C 266.800 388.991,267.351 388.800,268.024 388.800 C 268.737 388.800,269.144 388.633,269.000 388.400 C 268.856 388.167,269.263 388.000,269.976 388.000 C 270.649 388.000,271.200 387.820,271.200 387.600 C 271.200 387.380,271.639 387.200,272.176 387.200 C 272.713 387.200,273.264 387.020,273.400 386.800 C 273.536 386.580,273.997 386.400,274.424 386.400 C 274.851 386.400,275.200 386.220,275.200 386.000 C 275.200 385.780,275.560 385.600,276.000 385.600 C 276.440 385.600,276.800 385.420,276.800 385.200 C 276.800 384.980,277.340 384.800,278.000 384.800 C 278.660 384.800,279.200 384.620,279.200 384.400 C 279.200 384.180,279.470 384.000,279.800 384.000 C 280.130 384.000,280.400 383.820,280.400 383.600 C 280.400 383.380,280.850 383.200,281.400 383.200 C 281.950 383.200,282.400 383.020,282.400 382.800 C 282.400 382.580,282.951 382.400,283.624 382.400 C 284.337 382.400,284.744 382.233,284.600 382.000 C 284.464 381.780,284.543 381.600,284.776 381.600 C 285.009 381.600,285.212 381.825,285.227 382.100 C 285.242 382.375,285.449 382.195,285.688 381.700 C 285.927 381.205,286.455 380.800,286.861 380.800 C 287.268 380.800,287.600 380.620,287.600 380.400 C 287.600 380.180,287.960 380.000,288.400 380.000 C 288.840 380.000,289.200 379.820,289.200 379.600 C 289.200 379.380,289.560 379.200,290.000 379.200 C 290.440 379.200,290.800 379.020,290.800 378.800 C 290.800 378.580,291.160 378.400,291.600 378.400 C 292.040 378.400,292.400 378.220,292.400 378.000 C 292.400 377.780,292.760 377.600,293.200 377.600 C 293.640 377.600,294.000 377.420,294.000 377.200 C 294.000 376.980,294.236 376.800,294.525 376.800 C 294.813 376.800,295.436 376.440,295.908 376.000 C 296.380 375.560,297.044 375.200,297.383 375.200 C 297.722 375.200,298.000 375.001,298.000 374.757 C 298.000 374.514,298.255 374.412,298.567 374.532 C 298.879 374.652,299.240 374.472,299.370 374.133 C 299.500 373.794,299.849 373.610,300.145 373.723 C 300.440 373.837,300.977 373.586,301.337 373.165 C 301.697 372.744,302.365 372.400,302.820 372.400 C 303.275 372.400,303.536 372.220,303.400 372.000 C 303.264 371.780,303.523 371.600,303.976 371.600 C 304.429 371.600,304.800 371.420,304.800 371.200 C 304.800 370.980,305.238 370.800,305.773 370.800 C 306.379 370.800,306.837 370.512,306.988 370.037 C 307.121 369.617,307.503 369.169,307.836 369.042 C 308.235 368.888,308.350 368.978,308.174 369.305 C 308.027 369.577,308.353 369.305,308.900 368.700 C 309.446 368.095,310.115 367.600,310.386 367.600 C 310.657 367.600,311.358 367.105,311.943 366.500 C 312.529 365.895,313.276 365.342,313.604 365.270 C 313.932 365.199,314.260 364.974,314.333 364.770 C 314.407 364.567,314.722 364.400,315.033 364.400 C 315.345 364.400,315.600 364.220,315.600 364.000 C 315.600 363.780,315.830 363.600,316.112 363.600 C 316.393 363.600,316.883 363.240,317.200 362.800 C 317.517 362.360,318.097 362.000,318.488 362.000 C 318.880 362.000,319.200 361.848,319.200 361.661 C 319.200 360.946,320.733 359.600,321.547 359.600 C 322.016 359.600,322.400 359.448,322.400 359.261 C 322.400 358.703,323.888 357.164,324.309 357.286 C 324.691 357.397,326.317 356.076,327.672 354.554 C 328.789 353.300,329.530 352.800,330.283 352.794 C 330.892 352.789,330.910 352.729,330.400 352.400 C 329.884 352.066,329.895 352.011,330.481 352.006 C 330.855 352.003,332.062 351.100,333.162 350.000 C 334.262 348.900,335.440 348.000,335.781 348.000 C 336.121 348.000,336.379 347.865,336.353 347.700 C 336.221 346.868,336.461 346.400,337.018 346.400 C 337.358 346.400,338.086 345.950,338.636 345.400 C 339.186 344.850,339.441 344.400,339.202 344.400 C 338.930 344.400,338.960 344.193,339.284 343.842 C 339.568 343.535,339.935 343.366,340.100 343.466 C 340.513 343.716,340.479 342.649,340.060 342.180 C 339.872 341.971,339.227 340.540,338.626 339.000 C 335.217 330.266,328.719 321.281,321.160 314.847 C 317.457 311.696,317.229 311.520,314.362 309.587 C 312.953 308.637,311.710 307.748,311.600 307.611 C 311.490 307.474,310.770 306.929,310.000 306.400 C 309.230 305.871,308.510 305.315,308.400 305.164 C 308.042 304.673,300.287 299.951,296.800 298.102 C 294.930 297.110,293.250 296.162,293.067 295.996 C 292.884 295.831,293.431 294.368,294.282 292.747 C 295.134 291.126,296.069 288.990,296.361 288.000 C 296.652 287.010,297.033 285.840,297.206 285.400 C 298.485 282.149,298.721 269.567,297.607 264.000 C 297.365 262.790,297.064 261.213,296.939 260.496 C 296.814 259.779,296.551 259.094,296.356 258.973 C 296.160 258.852,296.000 258.234,296.000 257.600 C 296.000 256.966,295.820 256.336,295.600 256.200 C 295.380 256.064,295.200 255.601,295.200 255.171 C 295.200 254.741,295.041 254.077,294.847 253.695 C 294.652 253.313,294.310 252.550,294.086 252.000 C 293.370 250.245,291.183 245.427,290.746 244.645 C 290.514 244.230,289.960 243.240,289.515 242.445 C 285.000 234.387,277.109 225.145,271.605 221.467 C 269.026 219.743,268.940 219.727,268.572 220.900 " stroke="none" fill="#716a67" fill-rule="evenodd"></path><path id="path2" d="M178.700 0.273 C 176.555 0.359,174.800 0.602,174.800 0.814 C 174.800 1.027,173.551 1.200,172.024 1.200 C 170.497 1.200,169.136 1.380,169.000 1.600 C 168.864 1.820,167.773 2.000,166.576 2.000 C 165.379 2.000,164.400 2.180,164.400 2.400 C 164.400 2.620,163.410 2.800,162.200 2.800 C 160.990 2.800,160.000 2.980,160.000 3.200 C 160.000 3.420,159.280 3.600,158.400 3.600 C 157.520 3.600,156.800 3.780,156.800 4.000 C 156.800 4.220,156.001 4.400,155.024 4.400 C 154.047 4.400,153.136 4.580,153.000 4.800 C 152.864 5.020,152.144 5.200,151.400 5.200 C 150.656 5.200,149.936 5.380,149.800 5.600 C 149.664 5.820,148.944 6.000,148.200 6.000 C 147.456 6.000,146.736 6.180,146.600 6.400 C 146.464 6.620,145.924 6.800,145.400 6.800 C 144.876 6.800,144.336 6.980,144.200 7.200 C 144.064 7.420,143.434 7.600,142.800 7.600 C 142.166 7.600,141.536 7.780,141.400 8.000 C 141.264 8.220,140.717 8.400,140.185 8.400 C 139.174 8.400,133.508 10.132,132.305 10.809 C 131.923 11.024,131.248 11.200,130.805 11.200 C 130.362 11.200,130.000 11.380,130.000 11.600 C 130.000 11.820,129.561 12.000,129.024 12.000 C 128.487 12.000,127.936 12.180,127.800 12.400 C 127.664 12.620,127.113 12.800,126.576 12.800 C 126.039 12.800,125.600 12.980,125.600 13.200 C 125.600 13.420,125.240 13.600,124.800 13.600 C 124.360 13.600,124.000 13.780,124.000 14.000 C 124.000 14.220,123.561 14.400,123.024 14.400 C 122.487 14.400,121.936 14.580,121.800 14.800 C 121.664 15.020,121.203 15.200,120.776 15.200 C 120.349 15.200,120.000 15.380,120.000 15.600 C 120.000 15.820,119.640 16.000,119.200 16.000 C 118.760 16.000,118.400 16.180,118.400 16.400 C 118.400 16.620,118.164 16.800,117.875 16.800 C 117.586 16.800,116.605 17.160,115.694 17.600 C 114.784 18.040,113.850 18.400,113.619 18.400 C 113.389 18.400,113.200 18.580,113.200 18.800 C 113.200 19.020,112.966 19.200,112.680 19.200 C 111.944 19.200,110.007 20.141,110.003 20.500 C 110.001 20.665,109.640 20.800,109.200 20.800 C 108.760 20.800,108.400 20.980,108.400 21.200 C 108.400 21.420,108.040 21.600,107.600 21.600 C 107.160 21.600,106.800 21.780,106.800 22.000 C 106.800 22.220,106.440 22.400,106.000 22.400 C 105.560 22.400,105.200 22.558,105.200 22.751 C 105.200 22.945,104.660 23.327,104.000 23.600 C 103.340 23.873,102.800 24.255,102.800 24.449 C 102.800 24.642,102.509 24.800,102.154 24.800 C 101.572 24.800,97.998 26.540,97.000 27.308 C 96.780 27.478,95.430 28.355,94.000 29.257 C 92.570 30.160,91.340 31.056,91.267 31.249 C 91.193 31.442,90.828 31.600,90.455 31.600 C 90.082 31.600,89.517 31.960,89.200 32.400 C 88.883 32.840,88.369 33.200,88.059 33.200 C 87.748 33.200,87.203 33.516,86.847 33.903 C 86.491 34.289,85.705 34.860,85.100 35.170 C 84.495 35.481,84.000 35.885,84.000 36.068 C 84.000 36.250,83.757 36.400,83.459 36.400 C 83.162 36.400,82.354 36.940,81.663 37.600 C 80.972 38.260,80.318 38.800,80.208 38.800 C 80.006 38.800,78.742 39.791,77.784 40.700 C 77.494 40.975,77.147 41.200,77.012 41.200 C 76.752 41.200,76.341 41.525,74.349 43.300 C 73.671 43.905,72.959 44.400,72.768 44.400 C 72.577 44.400,71.651 45.167,70.711 46.105 C 69.770 47.043,68.370 48.255,67.600 48.799 C 66.830 49.342,64.439 51.590,62.287 53.793 C 57.582 58.611,58.611 57.582,53.793 62.287 C 51.590 64.439,49.342 66.830,48.799 67.600 C 48.255 68.370,47.043 69.770,46.105 70.711 C 45.167 71.651,44.400 72.577,44.400 72.768 C 44.400 72.959,43.859 73.719,43.199 74.458 C 41.514 76.340,41.200 76.736,41.200 76.979 C 41.200 77.192,40.231 78.436,39.300 79.416 C 39.025 79.706,38.800 80.047,38.800 80.175 C 38.800 80.303,38.260 80.972,37.600 81.663 C 36.940 82.354,36.400 83.162,36.400 83.459 C 36.400 83.757,36.250 84.000,36.068 84.000 C 35.885 84.000,35.481 84.495,35.170 85.100 C 34.860 85.705,34.289 86.491,33.903 86.847 C 33.516 87.203,33.200 87.748,33.200 88.059 C 33.200 88.369,32.840 88.883,32.400 89.200 C 31.960 89.517,31.600 90.082,31.600 90.455 C 31.600 90.828,31.442 91.193,31.249 91.267 C 31.056 91.340,30.160 92.570,29.257 94.000 C 28.355 95.430,27.478 96.780,27.308 97.000 C 26.540 97.998,24.800 101.572,24.800 102.154 C 24.800 102.509,24.642 102.800,24.449 102.800 C 24.255 102.800,23.873 103.340,23.600 104.000 C 23.327 104.660,22.945 105.200,22.751 105.200 C 22.558 105.200,22.400 105.560,22.400 106.000 C 22.400 106.440,22.220 106.800,22.000 106.800 C 21.780 106.800,21.600 107.145,21.600 107.567 C 21.600 107.988,21.465 108.393,21.300 108.467 C 20.868 108.659,19.200 111.972,19.200 112.638 C 19.200 112.947,19.020 113.200,18.800 113.200 C 18.580 113.200,18.400 113.389,18.400 113.619 C 18.400 113.850,18.040 114.784,17.600 115.694 C 17.160 116.605,16.800 117.586,16.800 117.875 C 16.800 118.164,16.620 118.400,16.400 118.400 C 16.180 118.400,16.000 118.760,16.000 119.200 C 16.000 119.640,15.820 120.000,15.600 120.000 C 15.380 120.000,15.200 120.349,15.200 120.776 C 15.200 121.203,15.020 121.664,14.800 121.800 C 14.580 121.936,14.400 122.487,14.400 123.024 C 14.400 123.561,14.220 124.000,14.000 124.000 C 13.780 124.000,13.600 124.360,13.600 124.800 C 13.600 125.240,13.420 125.600,13.200 125.600 C 12.980 125.600,12.800 126.039,12.800 126.576 C 12.800 127.113,12.620 127.664,12.400 127.800 C 12.180 127.936,12.000 128.487,12.000 129.024 C 12.000 129.561,11.820 130.000,11.600 130.000 C 11.380 130.000,11.200 130.362,11.200 130.805 C 11.200 131.248,11.024 131.923,10.809 132.305 C 10.132 133.508,8.400 139.174,8.400 140.185 C 8.400 140.717,8.220 141.264,8.000 141.400 C 7.780 141.536,7.600 142.166,7.600 142.800 C 7.600 143.434,7.420 144.064,7.200 144.200 C 6.980 144.336,6.800 144.876,6.800 145.400 C 6.800 145.924,6.620 146.464,6.400 146.600 C 6.180 146.736,6.000 147.456,6.000 148.200 C 6.000 148.944,5.820 149.664,5.600 149.800 C 5.380 149.936,5.200 150.656,5.200 151.400 C 5.200 152.144,5.020 152.864,4.800 153.000 C 4.580 153.136,4.400 153.856,4.400 154.600 C 4.400 155.344,4.220 156.064,4.000 156.200 C 3.780 156.336,3.600 157.247,3.600 158.224 C 3.600 159.201,3.420 160.000,3.200 160.000 C 2.980 160.000,2.800 160.889,2.800 161.976 C 2.800 163.063,2.620 164.064,2.400 164.200 C 2.180 164.336,2.000 165.416,2.000 166.600 C 2.000 167.784,1.820 168.864,1.600 169.000 C 1.380 169.136,1.200 170.482,1.200 171.990 C 1.200 173.829,1.035 174.788,0.700 174.900 C -0.032 175.144,-0.032 224.856,0.700 225.100 C 1.035 225.212,1.200 226.171,1.200 228.010 C 1.200 229.518,1.380 230.864,1.600 231.000 C 1.820 231.136,2.000 232.216,2.000 233.400 C 2.000 234.584,2.180 235.664,2.400 235.800 C 2.620 235.936,2.800 236.836,2.800 237.800 C 2.800 238.764,2.980 239.664,3.200 239.800 C 3.420 239.936,3.600 240.847,3.600 241.824 C 3.600 242.801,3.780 243.600,4.000 243.600 C 4.220 243.600,4.400 244.410,4.400 245.400 C 4.400 246.390,4.580 247.200,4.800 247.200 C 5.020 247.200,5.200 247.920,5.200 248.800 C 5.200 249.680,5.380 250.400,5.600 250.400 C 5.820 250.400,6.000 251.030,6.000 251.800 C 6.000 252.570,6.180 253.200,6.400 253.200 C 6.620 253.200,6.800 253.830,6.800 254.600 C 6.800 255.370,6.980 256.000,7.200 256.000 C 7.420 256.000,7.600 256.630,7.600 257.400 C 7.600 258.170,7.780 258.800,8.000 258.800 C 8.220 258.800,8.400 259.247,8.400 259.794 C 8.400 260.931,11.079 269.206,11.633 269.780 C 11.835 269.989,12.000 270.463,12.000 270.834 C 12.000 271.205,12.261 272.011,12.580 272.626 C 12.898 273.240,13.068 273.891,12.956 274.071 C 12.844 274.252,12.943 274.400,13.176 274.400 C 13.409 274.400,13.600 274.760,13.600 275.200 C 13.600 275.640,13.747 276.000,13.928 276.000 C 14.108 276.000,14.500 276.900,14.800 278.000 C 15.100 279.100,15.492 280.000,15.672 280.000 C 15.853 280.000,16.000 280.360,16.000 280.800 C 16.000 281.240,16.180 281.600,16.400 281.600 C 16.620 281.600,16.800 281.853,16.800 282.162 C 16.800 282.471,17.139 283.416,17.553 284.262 C 17.967 285.108,18.732 286.700,19.253 287.800 C 19.774 288.900,20.335 289.860,20.500 289.933 C 20.665 290.007,20.800 290.412,20.800 290.833 C 20.800 291.255,20.935 291.601,21.100 291.603 C 21.411 291.606,22.400 293.503,22.400 294.096 C 22.400 294.282,22.760 294.820,23.200 295.292 C 23.640 295.764,24.000 296.387,24.000 296.675 C 24.000 296.964,24.180 297.200,24.400 297.200 C 24.620 297.200,24.800 297.491,24.800 297.846 C 24.800 298.441,26.704 302.341,27.218 302.800 C 27.341 302.910,27.873 303.720,28.400 304.600 C 28.927 305.480,29.458 306.290,29.580 306.400 C 29.701 306.510,30.056 307.095,30.368 307.700 C 30.680 308.305,31.085 308.800,31.268 308.800 C 31.450 308.800,31.600 309.120,31.600 309.512 C 31.600 309.903,31.960 310.483,32.400 310.800 C 32.840 311.117,33.200 311.631,33.200 311.941 C 33.200 312.252,33.516 312.797,33.903 313.153 C 34.289 313.509,34.860 314.295,35.170 314.900 C 35.481 315.505,35.885 316.000,36.068 316.000 C 36.250 316.000,36.400 316.243,36.400 316.541 C 36.400 316.838,36.940 317.646,37.600 318.337 C 38.260 319.028,38.801 319.729,38.802 319.896 C 38.803 320.063,39.343 320.775,40.002 321.478 C 40.661 322.181,41.200 322.864,41.200 322.995 C 41.200 323.264,41.486 323.629,43.199 325.542 C 43.859 326.281,44.400 327.034,44.400 327.216 C 44.400 327.398,45.255 328.438,46.300 329.527 C 48.465 331.782,49.600 333.118,49.600 333.410 C 49.600 333.675,57.130 341.200,57.395 341.200 C 57.508 341.200,57.600 340.838,57.600 340.395 C 57.600 339.952,57.762 339.277,57.959 338.895 C 58.157 338.513,59.102 336.583,60.059 334.606 C 63.955 326.563,69.024 320.095,75.600 314.779 C 76.810 313.800,77.890 312.898,78.000 312.774 C 78.491 312.218,81.987 310.000,82.372 310.000 C 82.607 310.000,82.800 309.820,82.800 309.600 C 82.800 309.380,83.036 309.200,83.325 309.200 C 83.613 309.200,84.232 308.843,84.701 308.406 C 86.971 306.291,100.910 297.971,104.800 296.408 C 105.570 296.099,106.790 295.520,107.512 295.123 C 108.234 294.725,109.108 294.400,109.455 294.400 C 109.900 294.400,110.000 294.195,109.793 293.700 C 109.273 292.458,108.216 287.591,107.511 283.200 C 106.884 279.293,106.870 268.572,107.486 265.000 C 107.752 263.460,108.079 261.570,108.212 260.800 C 108.345 260.030,108.599 259.040,108.775 258.600 C 108.951 258.160,109.497 256.540,109.988 255.000 C 113.182 244.989,124.426 229.574,131.644 225.310 C 133.018 224.499,133.028 224.416,132.000 222.400 C 131.560 221.538,131.200 220.643,131.200 220.412 C 131.200 220.180,130.855 219.228,130.434 218.296 C 130.012 217.363,129.435 215.880,129.152 215.000 C 128.869 214.120,128.493 213.229,128.318 213.020 C 128.143 212.811,127.994 212.271,127.987 211.820 C 127.972 210.831,127.101 209.600,126.417 209.600 C 124.282 209.600,115.800 204.018,112.400 200.375 C 99.228 186.264,98.762 171.521,111.288 165.226 L 113.898 163.915 112.428 161.457 C 111.619 160.106,110.722 158.190,110.433 157.200 C 110.145 156.210,109.762 155.040,109.582 154.600 C 109.260 153.814,109.137 153.214,108.393 148.800 C 105.774 133.266,106.786 110.457,110.807 94.400 C 111.055 93.410,111.355 92.013,111.473 91.296 C 111.592 90.579,111.849 89.894,112.044 89.773 C 112.240 89.652,112.400 89.034,112.400 88.400 C 112.400 87.766,112.580 87.136,112.800 87.000 C 113.020 86.864,113.200 86.401,113.200 85.971 C 113.200 85.541,113.361 84.877,113.557 84.495 C 113.753 84.113,114.492 82.180,115.199 80.200 C 117.780 72.976,124.125 61.596,128.298 56.706 C 134.009 50.014,143.503 42.018,142.499 44.745 C 142.367 45.105,142.155 45.490,142.029 45.600 C 141.903 45.710,141.558 46.230,141.262 46.755 C 140.967 47.280,140.408 48.273,140.021 48.962 C 137.758 52.992,136.170 61.408,137.052 64.700 C 137.391 65.964,137.704 65.842,139.263 63.842 C 143.449 58.468,153.588 48.591,158.400 45.198 C 159.170 44.656,160.070 43.996,160.400 43.732 C 162.540 42.021,164.861 40.400,165.170 40.400 C 165.370 40.400,165.593 40.260,165.667 40.090 C 166.031 39.242,178.280 32.687,183.100 30.760 C 183.595 30.562,184.405 30.228,184.900 30.017 C 186.404 29.376,192.105 27.518,193.700 27.148 C 194.525 26.957,195.965 26.609,196.900 26.375 C 201.348 25.263,206.796 24.510,213.041 24.146 C 218.351 23.836,218.924 24.195,216.120 26.076 C 213.562 27.793,207.611 33.865,206.562 35.830 C 206.100 36.694,205.371 38.030,204.941 38.800 C 204.109 40.290,202.693 44.426,202.933 44.667 C 203.073 44.806,206.587 43.829,208.200 43.202 C 209.388 42.740,213.303 41.717,217.200 40.850 C 218.190 40.630,219.450 40.339,220.000 40.204 C 223.960 39.232,235.967 38.016,241.600 38.016 C 251.890 38.015,266.960 40.621,271.695 43.219 C 272.077 43.429,272.599 43.600,272.855 43.600 C 273.770 43.600,283.238 48.487,283.103 48.890 C 283.028 49.116,281.264 49.883,279.183 50.595 C 272.837 52.765,269.567 54.206,264.400 57.110 C 263.410 57.667,261.921 58.490,261.090 58.940 C 260.260 59.391,259.183 60.128,258.697 60.579 L 257.813 61.400 262.407 61.668 C 277.942 62.573,289.938 66.145,299.810 72.807 C 302.723 74.772,304.800 76.494,304.800 76.944 C 304.800 77.043,303.585 77.726,302.101 78.462 C 292.997 82.975,287.948 94.114,290.616 103.800 C 294.350 117.357,296.408 136.220,295.238 146.171 C 294.596 151.626,293.544 156.296,292.304 159.200 C 291.515 161.047,291.253 161.569,290.001 163.799 L 289.276 165.088 290.673 165.754 C 300.879 170.621,301.299 184.489,291.618 196.980 C 288.897 200.490,281.022 207.200,279.622 207.200 C 279.390 207.200,279.200 207.336,279.200 207.502 C 279.200 207.669,278.615 208.040,277.900 208.329 C 277.185 208.617,276.287 209.021,275.905 209.226 C 275.523 209.432,274.974 209.600,274.685 209.600 C 273.519 209.600,272.006 210.627,272.003 211.420 C 272.001 211.871,271.851 212.411,271.670 212.620 C 271.488 212.829,271.095 213.810,270.798 214.800 C 270.500 215.790,270.128 216.780,269.971 217.000 C 269.081 218.249,269.407 219.026,271.385 220.370 C 276.457 223.819,286.463 235.243,289.277 240.800 C 289.779 241.790,290.290 242.690,290.413 242.800 C 290.667 243.028,293.174 248.192,294.200 250.600 C 295.275 253.124,295.450 253.617,296.401 256.800 C 296.893 258.450,297.439 260.250,297.612 260.800 C 299.008 265.220,299.491 277.871,298.452 282.800 C 297.573 286.972,296.012 291.401,294.786 293.200 C 293.422 295.202,293.475 295.754,295.103 296.495 C 299.189 298.356,307.409 303.491,312.099 307.111 C 313.474 308.173,315.496 309.655,316.591 310.403 C 318.782 311.900,319.233 312.255,321.918 314.600 C 328.274 320.151,334.091 327.761,337.560 335.063 C 338.484 337.008,339.411 338.913,339.620 339.295 C 339.829 339.677,340.006 340.217,340.013 340.495 C 340.042 341.650,341.107 342.514,341.794 341.940 C 343.498 340.518,349.519 334.432,350.446 333.195 C 351.022 332.428,352.417 330.817,353.546 329.615 C 354.676 328.414,355.600 327.311,355.600 327.166 C 355.600 327.020,356.320 326.113,357.200 325.151 C 358.080 324.188,358.800 323.264,358.800 323.097 C 358.800 322.929,359.340 322.228,360.000 321.537 C 360.660 320.846,361.200 320.126,361.200 319.937 C 361.200 319.748,361.740 319.028,362.400 318.337 C 363.060 317.646,363.600 316.878,363.600 316.629 C 363.600 316.380,363.960 315.917,364.400 315.600 C 364.840 315.283,365.200 314.743,365.200 314.400 C 365.200 314.057,365.560 313.517,366.000 313.200 C 366.440 312.883,366.800 312.303,366.800 311.912 C 366.800 311.520,366.950 311.200,367.132 311.200 C 367.315 311.200,367.719 310.705,368.030 310.100 C 368.340 309.495,368.911 308.709,369.297 308.353 C 369.684 307.997,370.000 307.412,370.000 307.053 C 370.000 306.694,370.180 306.400,370.400 306.400 C 370.620 306.400,370.800 306.213,370.800 305.984 C 370.800 305.625,372.209 303.385,372.803 302.800 C 373.331 302.280,375.200 298.417,375.200 297.846 C 375.200 297.491,375.335 297.199,375.500 297.197 C 375.665 297.195,375.998 296.790,376.240 296.297 C 377.422 293.889,378.630 291.787,378.900 291.667 C 379.065 291.593,379.200 291.203,379.200 290.800 C 379.200 290.397,379.335 290.007,379.500 289.933 C 379.995 289.713,382.400 284.746,382.400 283.944 C 382.400 283.535,382.580 283.200,382.800 283.200 C 383.020 283.200,383.200 282.840,383.200 282.400 C 383.200 281.960,383.380 281.600,383.600 281.600 C 383.820 281.600,384.000 281.335,384.000 281.012 C 384.000 280.689,384.360 279.783,384.800 279.000 C 385.240 278.217,385.600 277.221,385.600 276.788 C 385.600 276.355,385.780 276.000,386.000 276.000 C 386.220 276.000,386.400 275.728,386.400 275.395 C 386.400 275.062,386.580 274.432,386.800 273.995 C 387.020 273.558,387.380 272.842,387.600 272.405 C 387.820 271.968,388.000 271.263,388.000 270.839 C 388.000 270.414,388.140 270.007,388.312 269.933 C 388.755 269.744,391.600 260.960,391.600 259.780 C 391.600 259.241,391.780 258.800,392.000 258.800 C 392.220 258.800,392.400 258.170,392.400 257.400 C 392.400 256.630,392.580 256.000,392.800 256.000 C 393.020 256.000,393.200 255.370,393.200 254.600 C 393.200 253.830,393.380 253.200,393.600 253.200 C 393.820 253.200,394.000 252.570,394.000 251.800 C 394.000 251.030,394.180 250.400,394.400 250.400 C 394.620 250.400,394.800 249.680,394.800 248.800 C 394.800 247.920,394.980 247.200,395.200 247.200 C 395.420 247.200,395.600 246.401,395.600 245.424 C 395.600 244.447,395.780 243.536,396.000 243.400 C 396.220 243.264,396.400 242.443,396.400 241.576 C 396.400 240.709,396.580 240.000,396.800 240.000 C 397.020 240.000,397.200 239.111,397.200 238.024 C 397.200 236.937,397.380 235.936,397.600 235.800 C 397.820 235.664,398.000 234.483,398.000 233.176 C 398.000 231.859,398.178 230.800,398.400 230.800 C 398.628 230.800,398.800 229.611,398.800 228.033 C 398.800 226.176,398.964 225.212,399.300 225.100 C 399.693 224.969,399.800 219.591,399.800 200.000 C 399.800 180.409,399.693 175.031,399.300 174.900 C 398.965 174.788,398.800 173.829,398.800 171.990 C 398.800 170.482,398.620 169.136,398.400 169.000 C 398.180 168.864,398.000 167.784,398.000 166.600 C 398.000 165.416,397.820 164.336,397.600 164.200 C 397.380 164.064,397.200 163.164,397.200 162.200 C 397.200 161.236,397.020 160.336,396.800 160.200 C 396.580 160.064,396.400 159.254,396.400 158.400 C 396.400 157.546,396.220 156.736,396.000 156.600 C 395.780 156.464,395.600 155.553,395.600 154.576 C 395.600 153.599,395.420 152.800,395.200 152.800 C 394.980 152.800,394.800 152.181,394.800 151.424 C 394.800 150.667,394.620 149.936,394.400 149.800 C 394.180 149.664,394.000 148.944,394.000 148.200 C 394.000 147.456,393.820 146.736,393.600 146.600 C 393.380 146.464,393.200 145.823,393.200 145.176 C 393.200 144.529,393.020 144.000,392.800 144.000 C 392.580 144.000,392.400 143.370,392.400 142.600 C 392.400 141.830,392.220 141.200,392.000 141.200 C 391.780 141.200,391.600 140.752,391.600 140.204 C 391.600 139.207,389.884 133.616,389.175 132.305 C 388.969 131.923,388.800 131.248,388.800 130.805 C 388.800 130.362,388.620 130.000,388.400 130.000 C 388.180 130.000,388.000 129.674,388.000 129.275 C 388.000 128.876,387.640 127.805,387.200 126.894 C 386.760 125.984,386.400 124.960,386.400 124.619 C 386.400 124.279,386.220 124.000,386.000 124.000 C 385.780 124.000,385.600 123.561,385.600 123.024 C 385.600 122.487,385.420 121.936,385.200 121.800 C 384.980 121.664,384.800 121.203,384.800 120.776 C 384.800 120.349,384.620 120.000,384.400 120.000 C 384.180 120.000,384.000 119.640,384.000 119.200 C 384.000 118.760,383.820 118.400,383.600 118.400 C 383.380 118.400,383.200 118.128,383.200 117.795 C 383.200 117.462,383.032 116.877,382.826 116.495 C 382.621 116.113,382.217 115.215,381.929 114.500 C 381.640 113.785,381.269 113.200,381.102 113.200 C 380.936 113.200,380.800 112.966,380.800 112.680 C 380.800 111.944,379.859 110.007,379.500 110.003 C 379.335 110.001,379.200 109.640,379.200 109.200 C 379.200 108.760,379.065 108.399,378.900 108.397 C 378.541 108.393,377.600 106.456,377.600 105.720 C 377.600 105.434,377.442 105.200,377.249 105.200 C 377.055 105.200,376.673 104.660,376.400 104.000 C 376.127 103.340,375.745 102.800,375.551 102.800 C 375.358 102.800,375.200 102.509,375.200 102.154 C 375.200 101.581,373.329 97.716,372.802 97.200 C 372.406 96.813,370.000 92.743,370.000 92.462 C 370.000 92.305,369.640 91.917,369.200 91.600 C 368.760 91.283,368.400 90.743,368.400 90.400 C 368.400 90.057,368.040 89.517,367.600 89.200 C 367.160 88.883,366.800 88.369,366.800 88.059 C 366.800 87.748,366.484 87.203,366.097 86.847 C 365.711 86.491,365.140 85.705,364.830 85.100 C 364.519 84.495,364.115 84.000,363.932 84.000 C 363.750 84.000,363.600 83.757,363.600 83.459 C 363.600 83.162,363.060 82.354,362.400 81.663 C 361.740 80.972,361.200 80.226,361.200 80.004 C 361.200 79.782,361.020 79.600,360.800 79.600 C 360.580 79.600,360.400 79.370,360.400 79.088 C 360.400 78.807,360.040 78.317,359.600 78.000 C 359.160 77.683,358.800 77.238,358.800 77.012 C 358.800 76.785,358.080 75.812,357.200 74.849 C 356.320 73.887,355.600 72.980,355.600 72.834 C 355.600 72.689,354.676 71.586,353.546 70.385 C 352.417 69.183,351.022 67.572,350.446 66.805 C 349.871 66.037,347.780 63.827,345.800 61.893 C 343.820 59.958,342.046 58.220,341.859 58.029 C 341.671 57.838,339.861 55.999,337.836 53.941 C 335.810 51.884,333.549 49.750,332.811 49.200 C 332.073 48.650,330.586 47.345,329.508 46.300 C 328.429 45.255,327.398 44.400,327.216 44.400 C 327.034 44.400,326.329 43.905,325.651 43.300 C 323.667 41.531,323.248 41.200,322.995 41.200 C 322.864 41.200,322.181 40.661,321.478 40.002 C 320.775 39.343,320.063 38.803,319.896 38.802 C 319.729 38.801,319.028 38.260,318.337 37.600 C 317.646 36.940,316.838 36.400,316.541 36.400 C 316.243 36.400,316.000 36.250,316.000 36.068 C 316.000 35.885,315.505 35.481,314.900 35.170 C 314.295 34.860,313.509 34.289,313.153 33.903 C 312.797 33.516,312.252 33.200,311.941 33.200 C 311.631 33.200,311.117 32.840,310.800 32.400 C 310.483 31.960,309.903 31.600,309.512 31.600 C 309.120 31.600,308.800 31.450,308.800 31.268 C 308.800 31.085,308.305 30.680,307.700 30.368 C 307.095 30.055,306.282 29.514,305.893 29.164 C 305.505 28.814,304.695 28.274,304.093 27.965 C 303.492 27.655,302.910 27.310,302.800 27.198 C 302.282 26.670,298.418 24.800,297.846 24.800 C 297.491 24.800,297.200 24.620,297.200 24.400 C 297.200 24.180,296.964 24.000,296.675 24.000 C 296.387 24.000,295.764 23.640,295.292 23.200 C 294.820 22.760,294.243 22.400,294.011 22.400 C 293.602 22.400,292.005 21.605,291.600 21.200 C 291.138 20.738,287.879 19.200,287.362 19.200 C 287.053 19.200,286.800 19.020,286.800 18.800 C 286.800 18.580,286.535 18.400,286.212 18.400 C 285.889 18.400,284.983 18.040,284.200 17.600 C 283.417 17.160,282.511 16.800,282.188 16.800 C 281.865 16.800,281.600 16.620,281.600 16.400 C 281.600 16.180,281.240 16.000,280.800 16.000 C 280.360 16.000,280.000 15.853,280.000 15.672 C 280.000 15.492,279.100 15.100,278.000 14.800 C 276.900 14.500,276.000 14.108,276.000 13.928 C 276.000 13.747,275.640 13.600,275.200 13.600 C 274.760 13.600,274.400 13.409,274.400 13.176 C 274.400 12.943,274.252 12.844,274.071 12.956 C 273.891 13.068,273.240 12.898,272.626 12.580 C 272.011 12.261,271.180 12.000,270.778 12.000 C 270.376 12.000,269.936 11.820,269.800 11.600 C 269.664 11.380,269.203 11.200,268.776 11.200 C 268.349 11.200,268.000 11.020,268.000 10.800 C 268.000 10.580,267.638 10.400,267.195 10.400 C 266.752 10.400,266.077 10.237,265.695 10.037 C 264.553 9.440,260.778 8.400,259.754 8.400 C 259.229 8.400,258.800 8.220,258.800 8.000 C 258.800 7.780,258.170 7.600,257.400 7.600 C 256.630 7.600,256.000 7.420,256.000 7.200 C 256.000 6.980,255.370 6.800,254.600 6.800 C 253.830 6.800,253.200 6.620,253.200 6.400 C 253.200 6.180,252.570 6.000,251.800 6.000 C 251.030 6.000,250.400 5.820,250.400 5.600 C 250.400 5.380,249.680 5.200,248.800 5.200 C 247.920 5.200,247.200 5.020,247.200 4.800 C 247.200 4.580,246.390 4.400,245.400 4.400 C 244.410 4.400,243.600 4.220,243.600 4.000 C 243.600 3.780,242.790 3.600,241.800 3.600 C 240.810 3.600,240.000 3.420,240.000 3.200 C 240.000 2.980,239.111 2.800,238.024 2.800 C 236.937 2.800,235.936 2.620,235.800 2.400 C 235.664 2.180,234.584 2.000,233.400 2.000 C 232.216 2.000,231.136 1.820,231.000 1.600 C 230.864 1.380,229.518 1.200,228.010 1.200 C 226.233 1.200,225.210 1.031,225.107 0.720 C 224.948 0.244,188.291 -0.109,178.700 0.273 " stroke="none" fill="#fbc304" fill-rule="evenodd"></path><path id="path3" d="M199.200 93.482 C 189.279 93.722,176.333 95.832,164.200 99.187 C 160.240 100.282,152.845 103.074,152.200 103.718 C 151.934 103.984,152.067 104.017,152.600 103.817 C 153.040 103.652,155.273 102.805,157.562 101.937 C 161.761 100.344,163.247 99.894,169.800 98.237 C 174.402 97.073,180.528 95.835,183.800 95.409 C 184.680 95.294,187.110 94.981,189.200 94.713 C 193.993 94.098,212.253 94.097,216.800 94.712 C 223.566 95.626,226.754 96.191,230.600 97.159 C 231.480 97.380,233.055 97.744,234.100 97.968 C 237.787 98.759,248.098 102.439,252.105 104.394 C 254.336 105.482,256.242 106.291,256.342 106.192 C 256.554 105.979,247.486 101.600,246.833 101.600 C 246.589 101.600,246.077 101.424,245.695 101.209 C 244.975 100.804,239.506 98.943,237.400 98.386 C 236.740 98.212,235.210 97.799,234.000 97.469 C 223.680 94.651,210.987 93.197,199.200 93.482 M149.061 105.046 C 147.994 105.601,147.198 106.131,147.290 106.224 C 147.473 106.406,151.600 104.434,151.600 104.164 C 151.600 103.836,150.961 104.057,149.061 105.046 M143.512 108.329 C 131.038 117.139,128.078 126.845,134.094 139.200 C 135.440 141.964,138.054 146.079,138.305 145.828 C 138.488 145.646,137.597 144.044,136.880 143.267 C 136.082 142.401,133.409 136.819,132.826 134.800 C 132.541 133.810,132.148 132.478,131.953 131.840 C 129.666 124.333,134.569 114.798,143.900 108.607 C 145.495 107.548,146.800 106.619,146.800 106.541 C 146.800 106.144,145.954 106.604,143.512 108.329 M257.600 107.191 C 258.150 107.616,259.050 108.197,259.600 108.481 C 260.150 108.766,260.690 109.098,260.800 109.219 C 260.910 109.340,261.630 109.871,262.400 110.399 C 268.499 114.585,273.047 121.257,274.261 127.800 C 274.515 129.167,274.579 129.245,274.702 128.339 C 275.439 122.896,268.351 113.537,258.909 107.484 C 256.962 106.236,256.122 106.048,257.600 107.191 M274.250 133.650 C 274.113 134.338,274.000 135.407,274.000 136.026 C 274.000 136.646,273.820 137.264,273.600 137.400 C 273.380 137.536,273.200 137.999,273.200 138.429 C 273.200 138.859,273.035 139.523,272.833 139.905 C 266.157 152.523,265.443 158.110,269.767 163.877 C 271.965 166.808,273.200 169.007,273.200 169.989 C 273.200 170.409,273.380 170.864,273.600 171.000 C 273.820 171.136,274.003 171.912,274.006 172.724 C 274.009 173.536,274.202 174.470,274.435 174.800 C 275.131 175.789,274.488 172.054,273.479 169.251 C 272.988 167.889,271.753 165.743,270.733 164.483 C 268.239 161.402,267.428 158.829,267.704 154.872 C 267.935 151.553,268.049 151.201,270.641 145.800 C 273.068 140.741,274.351 137.160,274.652 134.600 C 274.930 132.234,274.661 131.597,274.250 133.650 M138.428 146.876 C 138.496 148.144,139.142 149.054,139.172 147.924 C 139.187 147.332,139.020 146.736,138.800 146.600 C 138.580 146.464,138.413 146.588,138.428 146.876 M138.338 154.622 C 137.987 155.600,137.828 156.400,137.986 156.400 C 138.327 156.400,139.407 153.274,139.154 153.020 C 139.057 152.924,138.690 153.644,138.338 154.622 M134.080 159.995 C 131.413 162.533,130.517 163.703,129.427 166.069 C 127.173 170.963,125.337 177.257,126.345 176.634 C 126.595 176.479,126.800 175.881,126.800 175.305 C 126.800 174.119,127.446 171.903,128.696 168.800 C 130.216 165.027,131.219 163.562,134.369 160.516 C 136.237 158.710,137.680 157.147,137.575 157.042 C 137.470 156.937,135.897 158.265,134.080 159.995 M113.600 164.800 C 113.067 165.145,113.067 165.188,113.600 165.194 C 114.132 165.200,116.000 168.658,116.000 169.637 C 116.000 169.842,116.158 170.323,116.351 170.705 C 116.935 171.861,117.600 174.204,117.600 175.105 C 117.600 175.571,117.761 176.052,117.958 176.174 C 118.155 176.295,118.413 177.071,118.532 177.897 C 118.651 178.724,118.952 180.300,119.200 181.400 C 119.448 182.500,119.749 184.120,119.867 185.000 C 119.985 185.880,120.244 186.771,120.441 186.980 C 120.638 187.189,120.800 188.033,120.800 188.856 C 120.800 189.679,120.980 190.464,121.200 190.600 C 121.420 190.736,121.600 191.169,121.600 191.562 C 121.600 193.225,123.440 195.627,124.161 194.906 C 124.292 194.774,124.365 193.302,124.322 191.633 L 124.243 188.600 124.103 191.300 C 124.009 193.123,123.801 194.000,123.462 194.000 C 122.706 194.000,122.306 192.637,119.976 182.100 C 118.563 175.710,118.255 174.515,117.114 171.000 C 116.375 168.723,114.531 164.393,114.305 164.406 C 114.247 164.409,113.930 164.587,113.600 164.800 M286.756 167.690 C 283.678 171.389,282.362 175.016,281.018 183.513 C 279.863 190.808,279.414 192.125,277.281 194.470 C 275.562 196.360,275.391 195.762,275.512 188.296 C 275.573 184.503,275.475 180.050,275.294 178.400 C 275.055 176.234,274.970 178.281,274.988 185.769 C 275.016 197.399,275.052 197.527,277.552 194.899 C 279.505 192.846,280.800 190.049,280.800 187.884 C 280.800 186.936,280.963 185.989,281.163 185.780 C 281.363 185.571,281.626 184.500,281.748 183.400 C 282.185 179.452,282.488 177.794,282.841 177.420 C 283.038 177.211,283.200 176.624,283.200 176.115 C 283.200 175.606,283.359 174.877,283.554 174.495 C 283.749 174.113,284.306 172.885,284.791 171.768 C 285.276 170.650,286.533 168.801,287.583 167.658 C 288.633 166.516,289.347 165.491,289.169 165.381 C 288.991 165.271,287.905 166.310,286.756 167.690 M125.664 177.650 C 125.629 178.008,125.498 178.908,125.373 179.650 C 125.188 180.755,125.229 180.871,125.598 180.291 C 125.846 179.902,125.977 179.002,125.889 178.291 C 125.800 177.581,125.699 177.293,125.664 177.650 M124.651 184.130 C 124.473 185.851,124.418 187.351,124.530 187.463 C 124.826 187.760,125.296 183.586,125.123 182.188 C 125.040 181.508,124.838 182.339,124.651 184.130 M267.050 222.391 C 266.147 224.647,266.287 224.983,267.237 222.842 C 267.666 221.875,267.945 221.012,267.858 220.925 C 267.771 220.838,267.408 221.498,267.050 222.391 M133.392 224.626 C 133.697 225.797,138.799 236.134,138.981 235.951 C 139.064 235.868,137.792 233.100,136.154 229.800 C 134.516 226.500,133.273 224.172,133.392 224.626 M262.981 231.237 C 262.629 231.918,262.412 232.545,262.499 232.632 C 262.586 232.719,262.956 232.162,263.322 231.395 C 264.144 229.670,263.859 229.538,262.981 231.237 M261.068 235.100 C 260.004 236.875,259.190 238.524,259.316 238.649 C 259.401 238.734,259.961 237.903,260.560 236.802 C 261.419 235.224,261.841 233.809,261.068 235.100 M140.586 239.100 C 140.935 239.815,141.306 240.400,141.410 240.400 C 141.808 240.400,141.552 239.763,140.767 238.800 L 139.952 237.800 140.586 239.100 M258.400 239.559 C 258.400 240.051,255.462 244.866,253.342 247.851 C 252.384 249.199,251.600 250.477,251.600 250.690 C 251.600 251.705,246.068 258.364,241.015 263.430 C 233.503 270.962,228.512 274.660,221.079 278.202 C 216.459 280.403,213.772 281.434,211.000 282.070 C 198.931 284.836,189.997 283.922,178.904 278.783 C 172.482 275.807,165.000 270.223,158.700 263.701 L 155.600 260.492 155.623 268.546 C 155.636 272.976,155.795 277.320,155.978 278.200 C 156.172 279.138,156.220 276.800,156.093 272.548 C 155.816 263.232,155.974 262.822,158.155 267.200 C 161.765 274.447,163.984 277.566,169.400 283.006 C 178.342 291.987,189.594 298.514,200.200 300.872 C 206.572 302.289,208.573 302.503,215.600 302.525 C 220.103 302.539,223.861 302.354,225.200 302.053 C 229.887 301.001,231.117 300.670,234.600 299.527 C 236.580 298.876,239.683 297.547,241.496 296.572 C 245.212 294.574,245.200 294.578,245.200 295.400 C 245.200 295.730,245.064 296.000,244.898 296.000 C 244.731 296.000,244.341 296.585,244.031 297.300 C 243.491 298.544,240.531 303.183,240.011 303.600 C 239.874 303.710,239.333 304.430,238.810 305.200 C 237.338 307.365,228.903 315.626,226.000 317.746 C 224.570 318.790,223.127 319.860,222.794 320.122 C 222.461 320.385,221.696 320.855,221.094 321.168 C 220.492 321.480,220.000 321.885,220.000 322.068 C 220.000 322.250,219.730 322.400,219.400 322.400 C 219.070 322.400,218.800 322.580,218.800 322.800 C 218.800 323.020,218.530 323.200,218.200 323.200 C 217.870 323.200,217.600 323.380,217.600 323.600 C 217.600 323.820,217.345 324.000,217.033 324.000 C 216.722 324.000,216.407 324.135,216.333 324.300 C 216.166 324.676,214.036 325.975,213.100 326.271 C 212.715 326.393,212.400 326.669,212.400 326.885 C 212.400 327.710,223.649 320.481,227.978 316.874 C 240.604 306.355,246.805 296.344,250.818 280.000 C 251.666 276.547,251.772 275.014,251.976 263.200 L 252.200 250.200 254.834 246.200 C 258.555 240.552,259.327 239.200,258.833 239.200 C 258.595 239.200,258.400 239.362,258.400 239.559 M142.206 241.865 C 142.590 242.451,143.263 243.539,143.702 244.283 C 144.140 245.026,144.580 245.553,144.679 245.455 C 144.871 245.262,142.014 240.800,141.697 240.800 C 141.593 240.800,141.822 241.279,142.206 241.865 M147.444 249.900 C 150.379 254.134,154.533 259.393,155.313 259.861 C 155.743 260.119,154.970 258.921,154.370 258.400 C 153.641 257.766,149.103 251.713,147.400 249.102 C 146.300 247.415,145.252 246.028,145.070 246.018 C 144.889 246.008,145.957 247.755,147.444 249.900 M156.446 281.600 C 156.509 283.480,157.114 284.846,157.154 283.200 C 157.173 282.430,157.013 281.530,156.800 281.200 C 156.495 280.728,156.419 280.814,156.446 281.600 M157.206 285.476 C 157.209 285.874,157.387 286.470,157.600 286.800 C 157.903 287.269,157.989 287.166,157.994 286.324 C 157.997 285.732,157.820 285.136,157.600 285.000 C 157.380 284.864,157.203 285.078,157.206 285.476 M158.012 288.200 C 158.012 288.640,158.187 289.270,158.400 289.600 C 158.721 290.097,158.788 290.062,158.788 289.400 C 158.788 288.960,158.613 288.330,158.400 288.000 C 158.079 287.503,158.012 287.538,158.012 288.200 M159.000 291.300 C 162.548 303.896,177.056 319.589,195.094 330.341 C 200.785 333.734,200.275 333.722,206.269 330.589 C 211.733 327.732,212.556 327.200,211.513 327.200 C 211.158 327.200,210.807 327.339,210.733 327.510 C 210.660 327.680,208.344 328.957,205.587 330.348 L 200.574 332.878 196.187 330.368 C 193.774 328.987,191.710 327.754,191.600 327.628 C 191.490 327.502,190.905 327.144,190.300 326.832 C 189.695 326.520,189.200 326.115,189.200 325.932 C 189.200 325.750,188.930 325.600,188.600 325.600 C 188.270 325.600,188.000 325.420,188.000 325.200 C 188.000 324.980,187.745 324.800,187.433 324.800 C 187.122 324.800,186.807 324.665,186.733 324.500 C 186.660 324.335,185.520 323.390,184.200 322.400 C 182.880 321.410,181.571 320.383,181.290 320.119 C 181.010 319.854,179.931 318.954,178.893 318.119 C 175.690 315.541,169.693 309.116,167.641 306.065 C 167.099 305.259,166.509 304.540,166.328 304.467 C 166.148 304.393,166.000 304.156,166.000 303.939 C 166.000 303.722,165.460 302.759,164.800 301.800 C 164.140 300.841,163.600 299.878,163.600 299.661 C 163.600 299.444,163.465 299.207,163.300 299.133 C 162.868 298.941,161.200 295.628,161.200 294.962 C 161.200 294.653,161.020 294.400,160.800 294.400 C 160.580 294.400,160.400 294.051,160.400 293.624 C 160.400 293.197,160.220 292.736,160.000 292.600 C 159.780 292.464,159.600 291.913,159.600 291.376 C 159.600 290.839,159.408 290.400,159.173 290.400 C 158.922 290.400,158.850 290.770,159.000 291.300 M166.700 337.482 C 167.195 337.578,168.005 337.578,168.500 337.482 C 168.995 337.387,168.590 337.309,167.600 337.309 C 166.610 337.309,166.205 337.387,166.700 337.482 M230.300 337.482 C 230.795 337.578,231.605 337.578,232.100 337.482 C 232.595 337.387,232.190 337.309,231.200 337.309 C 230.210 337.309,229.805 337.387,230.300 337.482 M164.562 338.442 C 163.393 339.734,163.111 396.543,164.269 397.421 C 165.119 398.065,166.800 398.184,166.800 397.600 C 166.800 397.380,166.271 397.200,165.625 397.200 C 163.910 397.200,163.904 397.077,164.086 366.466 C 164.239 340.679,164.287 339.188,164.986 338.416 C 165.392 337.967,165.634 337.600,165.524 337.600 C 165.414 337.600,164.981 337.979,164.562 338.442 M233.961 338.554 C 235.254 340.332,235.292 397.200,234.000 397.200 C 233.560 397.200,233.200 397.392,233.200 397.627 C 233.200 397.861,233.656 397.996,234.212 397.927 C 234.769 397.857,235.219 397.665,235.212 397.500 C 235.206 397.335,235.200 384.250,235.200 368.422 L 235.200 339.645 234.161 338.522 L 233.122 337.400 233.961 338.554 M171.000 368.314 L 171.000 397.800 170.100 397.928 C 168.771 398.117,169.006 398.800,170.400 398.800 L 171.600 398.800 171.572 369.500 C 171.556 353.385,171.421 339.891,171.272 339.514 C 171.122 339.137,171.000 352.097,171.000 368.314 M227.361 346.000 C 227.361 349.410,227.422 350.805,227.497 349.100 C 227.572 347.395,227.572 344.605,227.497 342.900 C 227.422 341.195,227.361 342.590,227.361 346.000 M227.386 377.800 C 227.386 389.020,227.437 393.668,227.500 388.128 C 227.562 382.588,227.562 373.408,227.500 367.728 C 227.437 362.048,227.386 366.580,227.386 377.800 M228.800 398.400 C 228.800 398.620,229.250 398.800,229.800 398.800 C 230.350 398.800,230.800 398.620,230.800 398.400 C 230.800 398.180,230.350 398.000,229.800 398.000 C 229.250 398.000,228.800 398.180,228.800 398.400 " stroke="none" fill="#d9c191" fill-rule="evenodd"></path><path id="path4" d="M208.400 25.035 C 205.650 25.323,202.860 25.664,202.200 25.793 C 197.704 26.670,196.287 26.989,193.800 27.680 C 183.290 30.600,165.619 39.095,162.400 42.776 C 162.290 42.902,161.120 43.802,159.800 44.776 C 153.443 49.468,143.884 58.623,139.557 64.164 C 137.338 67.005,136.946 66.983,136.600 64.000 C 135.975 58.617,138.109 49.843,140.843 46.548 C 141.746 45.460,140.810 45.497,139.311 46.609 C 125.531 56.831,114.495 77.114,110.044 100.400 C 109.813 101.610,109.453 103.500,109.244 104.600 C 106.495 119.066,106.874 143.953,109.996 154.000 C 110.167 154.550,110.545 155.810,110.835 156.800 C 111.125 157.790,111.781 159.320,112.293 160.200 C 115.144 165.102,118.800 174.223,118.800 176.434 C 118.800 176.835,118.963 177.576,119.162 178.081 C 119.361 178.587,119.735 180.080,119.994 181.400 C 121.186 187.477,122.114 191.363,122.473 191.780 C 122.653 191.989,122.800 192.484,122.800 192.880 C 122.800 193.276,122.959 193.600,123.153 193.600 C 123.679 193.600,123.988 192.086,123.995 189.477 C 124.002 186.092,124.993 179.636,126.276 174.600 C 128.175 167.149,129.716 164.218,133.868 160.163 C 139.773 154.397,140.473 149.508,136.283 143.313 C 131.946 136.901,129.774 127.141,131.656 122.519 C 134.326 115.961,136.728 112.962,142.609 108.844 C 147.595 105.354,154.270 102.202,161.400 99.971 C 162.940 99.489,164.560 98.951,165.000 98.775 C 165.440 98.600,166.790 98.241,168.000 97.978 C 169.210 97.716,170.650 97.362,171.200 97.193 C 171.750 97.024,173.280 96.678,174.600 96.424 C 175.920 96.169,177.810 95.805,178.800 95.613 C 179.790 95.421,182.040 95.063,183.800 94.818 C 185.560 94.573,188.260 94.169,189.800 93.920 C 193.595 93.307,212.566 93.324,216.400 93.944 C 218.050 94.211,220.570 94.612,222.000 94.835 C 223.430 95.058,225.320 95.397,226.200 95.588 C 227.080 95.779,228.880 96.149,230.200 96.410 C 231.520 96.672,233.050 97.025,233.600 97.196 C 234.150 97.367,235.410 97.734,236.400 98.010 C 238.619 98.631,245.112 100.725,246.200 101.171 C 268.894 110.477,279.511 124.616,274.005 138.200 C 273.827 138.640,273.449 139.630,273.167 140.400 C 272.884 141.170,271.821 143.510,270.804 145.600 C 266.687 154.063,266.653 158.711,270.669 164.140 C 274.693 169.579,276.481 178.634,275.833 190.300 C 275.539 195.607,275.648 195.856,277.422 193.900 C 279.107 192.041,279.492 191.212,280.006 188.346 C 280.257 186.946,280.637 184.810,280.850 183.600 C 282.648 173.415,283.284 171.830,287.956 165.885 C 294.779 157.203,296.592 142.906,293.620 121.200 C 293.072 117.203,292.829 115.710,292.413 113.800 C 292.222 112.920,291.847 111.120,291.582 109.800 C 291.316 108.480,290.737 106.140,290.295 104.600 C 287.175 93.724,292.921 81.439,302.956 77.530 L 304.513 76.924 303.028 75.762 C 302.212 75.123,301.061 74.195,300.472 73.700 C 299.882 73.206,299.175 72.801,298.900 72.800 C 298.625 72.800,298.400 72.648,298.400 72.462 C 298.400 71.852,288.685 67.285,284.800 66.068 C 277.949 63.923,266.484 62.008,260.412 61.994 C 256.325 61.984,256.246 61.595,259.853 59.241 C 264.257 56.368,272.574 52.365,277.900 50.557 C 280.375 49.716,282.400 48.916,282.400 48.779 C 282.400 47.973,269.289 42.511,265.000 41.530 C 264.120 41.328,262.680 40.994,261.800 40.786 C 248.294 37.601,232.478 37.868,216.200 41.558 C 212.618 42.370,205.353 44.503,203.100 45.405 C 201.364 46.100,203.697 39.364,206.773 34.800 C 208.613 32.069,213.302 27.258,215.237 26.115 C 218.270 24.323,217.050 24.130,208.400 25.035 M277.583 226.500 C 278.564 227.545,279.419 228.400,279.483 228.400 C 279.784 228.400,279.466 228.041,277.700 226.383 L 275.800 224.600 277.583 226.500 M117.923 240.300 C 117.218 241.121,116.690 242.000,116.901 242.000 C 116.983 242.000,117.449 241.460,117.937 240.800 C 118.901 239.496,118.892 239.172,117.923 240.300 M107.301 270.600 C 107.305 271.480,107.387 271.793,107.483 271.295 C 107.579 270.798,107.575 270.078,107.475 269.695 C 107.375 269.313,107.296 269.720,107.301 270.600 M298.534 274.000 C 298.534 275.650,298.605 276.325,298.691 275.500 C 298.778 274.675,298.778 273.325,298.691 272.500 C 298.605 271.675,298.534 272.350,298.534 274.000 M107.301 277.000 C 107.305 277.880,107.387 278.193,107.483 277.695 C 107.579 277.198,107.575 276.478,107.475 276.095 C 107.375 275.713,107.296 276.120,107.301 277.000 M107.693 280.000 C 107.693 280.770,107.775 281.085,107.876 280.700 C 107.976 280.315,107.976 279.685,107.876 279.300 C 107.775 278.915,107.693 279.230,107.693 280.000 M324.600 318.000 C 325.906 319.320,327.065 320.400,327.175 320.400 C 327.285 320.400,326.306 319.320,325.000 318.000 C 323.694 316.680,322.535 315.600,322.425 315.600 C 322.315 315.600,323.294 316.680,324.600 318.000 M69.775 320.900 L 68.600 322.200 69.900 321.025 C 71.112 319.930,71.384 319.600,71.075 319.600 C 71.006 319.600,70.421 320.185,69.775 320.900 M64.400 348.229 C 64.400 348.653,65.636 349.697,65.867 349.467 C 65.992 349.341,65.817 348.960,65.476 348.619 C 64.841 347.984,64.400 347.824,64.400 348.229 M333.518 349.627 C 332.703 350.492,332.192 351.200,332.384 351.200 C 332.756 351.200,335.600 348.553,335.600 348.207 C 335.600 347.689,334.883 348.177,333.518 349.627 M70.000 353.040 C 70.000 353.389,72.482 355.652,72.664 355.469 C 73.007 355.127,72.278 354.015,71.563 353.788 C 71.143 353.655,70.800 353.378,70.800 353.173 C 70.800 352.968,70.620 352.800,70.400 352.800 C 70.180 352.800,70.000 352.908,70.000 353.040 M329.200 353.173 C 329.200 353.378,328.837 353.661,328.394 353.802 C 327.951 353.943,327.692 354.225,327.818 354.429 C 327.944 354.633,327.876 354.800,327.666 354.800 C 327.457 354.800,327.172 355.095,327.034 355.457 C 326.813 356.032,326.869 356.044,327.489 355.557 C 329.107 354.284,330.270 352.800,329.649 352.800 C 329.402 352.800,329.200 352.968,329.200 353.173 M75.600 357.504 C 75.600 357.671,75.960 358.032,76.400 358.307 C 77.330 358.888,77.454 358.597,76.629 357.771 C 75.998 357.141,75.600 357.037,75.600 357.504 M323.300 357.820 C 322.238 358.979,323.046 359.177,324.391 358.088 C 325.189 357.441,325.203 357.371,324.535 357.325 C 324.131 357.297,323.575 357.520,323.300 357.820 M78.400 359.751 C 78.400 359.834,78.670 360.126,79.000 360.400 C 79.491 360.808,79.600 360.780,79.600 360.249 C 79.600 359.892,79.330 359.600,79.000 359.600 C 78.670 359.600,78.400 359.668,78.400 359.751 M317.287 362.809 C 316.819 363.559,316.841 363.581,317.591 363.113 C 318.036 362.835,318.400 362.471,318.400 362.304 C 318.400 361.726,317.791 362.003,317.287 362.809 M87.002 366.002 C 87.402 366.444,87.811 366.722,87.912 366.621 C 88.128 366.405,86.988 365.200,86.567 365.200 C 86.407 365.200,86.603 365.561,87.002 366.002 M312.504 365.821 C 312.231 366.116,312.141 366.438,312.304 366.537 C 312.467 366.635,312.823 366.474,313.096 366.179 C 313.369 365.884,313.459 365.562,313.296 365.463 C 313.133 365.365,312.777 365.526,312.504 365.821 M299.467 373.867 C 298.981 374.353,299.190 374.779,299.800 374.545 C 300.130 374.418,300.400 374.154,300.400 373.957 C 300.400 373.538,299.849 373.484,299.467 373.867 M295.900 376.033 C 295.515 376.455,295.335 376.794,295.500 376.787 C 295.919 376.770,297.200 375.766,297.200 375.456 C 297.200 374.993,296.612 375.254,295.900 376.033 M129.800 388.400 C 129.936 388.620,130.307 388.800,130.624 388.800 C 130.941 388.800,131.200 388.620,131.200 388.400 C 131.200 388.180,130.829 388.000,130.376 388.000 C 129.923 388.000,129.664 388.180,129.800 388.400 M262.400 390.633 C 262.400 390.982,262.614 391.195,262.875 391.108 C 263.617 390.861,263.740 390.000,263.033 390.000 C 262.685 390.000,262.400 390.285,262.400 390.633 M259.815 391.176 C 259.687 391.382,259.947 391.524,260.391 391.491 C 260.836 391.457,261.200 391.288,261.200 391.115 C 261.200 390.673,260.096 390.721,259.815 391.176 M254.800 392.800 C 254.800 393.020,255.070 393.200,255.400 393.200 C 255.730 393.200,256.000 393.020,256.000 392.800 C 256.000 392.580,255.730 392.400,255.400 392.400 C 255.070 392.400,254.800 392.580,254.800 392.800 M251.600 393.600 C 251.600 393.820,251.870 394.000,252.200 394.000 C 252.530 394.000,252.800 393.820,252.800 393.600 C 252.800 393.380,252.530 393.200,252.200 393.200 C 251.870 393.200,251.600 393.380,251.600 393.600 M156.252 396.085 C 156.534 396.540,158.000 396.473,158.000 396.004 C 158.000 395.787,157.563 395.645,157.029 395.689 C 156.495 395.734,156.145 395.912,156.252 396.085 " stroke="none" fill="#a07341" fill-rule="evenodd"></path><path id="path5" d="M210.700 24.682 C 211.195 24.778,212.005 24.778,212.500 24.682 C 212.995 24.587,212.590 24.509,211.600 24.509 C 210.610 24.509,210.205 24.587,210.700 24.682 M206.300 25.082 C 206.795 25.178,207.605 25.178,208.100 25.082 C 208.595 24.987,208.190 24.909,207.200 24.909 C 206.210 24.909,205.805 24.987,206.300 25.082 M200.900 25.876 C 201.285 25.976,201.915 25.976,202.300 25.876 C 202.685 25.775,202.370 25.693,201.600 25.693 C 200.830 25.693,200.515 25.775,200.900 25.876 M234.505 38.687 C 235.114 38.779,236.014 38.777,236.505 38.682 C 236.997 38.587,236.500 38.511,235.400 38.514 C 234.300 38.517,233.897 38.595,234.505 38.687 M247.100 38.682 C 247.595 38.778,248.405 38.778,248.900 38.682 C 249.395 38.587,248.990 38.509,248.000 38.509 C 247.010 38.509,246.605 38.587,247.100 38.682 M231.105 39.083 C 231.602 39.179,232.322 39.175,232.705 39.075 C 233.087 38.975,232.680 38.896,231.800 38.901 C 230.920 38.905,230.607 38.987,231.105 39.083 M250.705 39.083 C 251.202 39.179,251.922 39.175,252.305 39.075 C 252.687 38.975,252.280 38.896,251.400 38.901 C 250.520 38.905,250.207 38.987,250.705 39.083 M220.400 40.400 C 219.596 40.657,219.557 40.723,220.200 40.732 C 220.640 40.738,221.360 40.589,221.800 40.400 C 222.819 39.962,221.768 39.962,220.400 40.400 M260.200 40.400 C 260.640 40.589,261.360 40.738,261.800 40.732 C 262.443 40.723,262.404 40.657,261.600 40.400 C 260.232 39.962,259.181 39.962,260.200 40.400 M213.200 42.000 C 212.376 42.264,212.341 42.326,213.000 42.354 C 213.440 42.373,214.070 42.213,214.400 42.000 C 215.101 41.547,214.614 41.547,213.200 42.000 M160.385 44.029 L 159.000 45.258 160.600 44.145 C 161.480 43.533,162.275 42.980,162.367 42.916 C 162.458 42.852,162.362 42.800,162.152 42.800 C 161.942 42.800,161.147 43.353,160.385 44.029 M140.781 45.302 C 140.221 45.796,139.977 46.059,140.239 45.886 C 140.501 45.713,140.936 45.623,141.205 45.686 C 141.474 45.749,141.747 45.485,141.811 45.100 C 141.957 44.232,142.005 44.223,140.781 45.302 M156.751 46.831 L 155.000 48.462 156.900 46.946 C 157.945 46.113,158.800 45.379,158.800 45.315 C 158.800 45.007,158.363 45.330,156.751 46.831 M277.633 46.149 C 278.045 46.517,280.400 47.600,280.400 47.421 C 280.400 47.190,278.182 46.000,277.753 46.000 C 277.596 46.000,277.542 46.067,277.633 46.149 M140.214 47.435 C 139.841 48.004,139.605 48.538,139.689 48.622 C 139.773 48.707,140.158 48.241,140.544 47.588 C 141.406 46.128,141.148 46.009,140.214 47.435 M132.992 52.100 L 129.400 55.800 133.100 52.208 C 136.536 48.872,136.982 48.400,136.692 48.400 C 136.632 48.400,134.967 50.065,132.992 52.100 M153.478 49.413 C 152.860 49.956,152.514 50.400,152.708 50.400 C 152.902 50.400,153.483 49.950,154.000 49.400 C 155.195 48.128,154.931 48.134,153.478 49.413 M147.192 55.500 L 143.400 59.400 147.300 55.608 C 149.445 53.522,151.200 51.767,151.200 51.708 C 151.200 51.418,150.714 51.878,147.192 55.500 M126.175 59.868 C 125.559 60.676,125.259 61.211,125.509 61.056 C 126.021 60.740,127.753 58.400,127.475 58.400 C 127.376 58.400,126.791 59.061,126.175 59.868 M136.528 61.600 C 136.528 63.030,136.601 63.615,136.689 62.900 C 136.778 62.185,136.778 61.015,136.689 60.300 C 136.601 59.585,136.528 60.170,136.528 61.600 M258.700 61.889 C 259.415 61.978,260.585 61.978,261.300 61.889 C 262.015 61.801,261.430 61.728,260.000 61.728 C 258.570 61.728,257.985 61.801,258.700 61.889 M268.705 62.683 C 269.202 62.779,269.922 62.775,270.305 62.675 C 270.687 62.575,270.280 62.496,269.400 62.501 C 268.520 62.505,268.207 62.587,268.705 62.683 M295.578 82.700 L 294.200 84.200 295.700 82.822 C 297.096 81.538,297.384 81.200,297.078 81.200 C 297.012 81.200,296.337 81.875,295.578 82.700 M290.865 89.817 C 290.609 90.378,290.407 91.054,290.416 91.319 C 290.424 91.583,290.697 91.188,291.022 90.439 C 291.705 88.865,291.561 88.290,290.865 89.817 M289.693 94.400 C 289.693 95.170,289.775 95.485,289.876 95.100 C 289.976 94.715,289.976 94.085,289.876 93.700 C 289.775 93.315,289.693 93.630,289.693 94.400 M289.293 98.000 C 289.293 98.770,289.375 99.085,289.476 98.700 C 289.576 98.315,289.576 97.685,289.476 97.300 C 289.375 96.915,289.293 97.230,289.293 98.000 M110.049 98.600 C 110.016 99.040,109.896 99.850,109.783 100.400 L 109.577 101.400 110.006 100.419 C 110.242 99.879,110.361 99.069,110.272 98.619 C 110.113 97.821,110.107 97.821,110.049 98.600 M108.493 108.400 C 108.493 109.170,108.575 109.485,108.676 109.100 C 108.776 108.715,108.776 108.085,108.676 107.700 C 108.575 107.315,108.493 107.630,108.493 108.400 M107.720 116.400 C 107.720 117.610,107.795 118.105,107.887 117.500 C 107.978 116.895,107.978 115.905,107.887 115.300 C 107.795 114.695,107.720 115.190,107.720 116.400 M107.314 121.000 C 107.317 122.100,107.395 122.503,107.487 121.895 C 107.579 121.286,107.577 120.386,107.482 119.895 C 107.387 119.403,107.311 119.900,107.314 121.000 M293.640 121.833 C 293.662 122.475,293.833 123.450,294.020 124.000 C 294.249 124.674,294.284 124.349,294.128 123.000 C 293.869 120.750,293.579 120.059,293.640 121.833 M294.509 128.800 C 294.509 129.790,294.587 130.195,294.682 129.700 C 294.778 129.205,294.778 128.395,294.682 127.900 C 294.587 127.405,294.509 127.810,294.509 128.800 M294.914 132.600 C 294.917 133.700,294.995 134.103,295.087 133.495 C 295.179 132.886,295.177 131.986,295.082 131.495 C 294.987 131.003,294.911 131.500,294.914 132.600 M107.320 136.400 C 107.320 137.610,107.395 138.105,107.487 137.500 C 107.578 136.895,107.578 135.905,107.487 135.300 C 107.395 134.695,107.320 135.190,107.320 136.400 M107.714 140.600 C 107.717 141.700,107.795 142.103,107.887 141.495 C 107.979 140.886,107.977 139.986,107.882 139.495 C 107.787 139.003,107.711 139.500,107.714 140.600 M294.893 144.400 C 294.893 145.170,294.975 145.485,295.076 145.100 C 295.176 144.715,295.176 144.085,295.076 143.700 C 294.975 143.315,294.893 143.630,294.893 144.400 M294.501 147.400 C 294.505 148.280,294.587 148.593,294.683 148.095 C 294.779 147.598,294.775 146.878,294.675 146.495 C 294.575 146.113,294.496 146.520,294.501 147.400 M108.493 147.600 C 108.493 148.370,108.575 148.685,108.676 148.300 C 108.776 147.915,108.776 147.285,108.676 146.900 C 108.575 146.515,108.493 146.830,108.493 147.600 M109.844 154.600 C 110.173 156.071,110.402 156.390,110.394 155.367 C 110.391 154.945,110.205 154.330,109.982 154.000 C 109.685 153.562,109.648 153.724,109.844 154.600 M112.415 161.000 C 112.417 161.220,112.786 161.850,113.236 162.400 C 113.779 163.064,113.915 163.131,113.640 162.600 C 112.966 161.295,112.412 160.572,112.415 161.000 M126.981 229.700 L 125.400 231.400 127.100 229.819 C 128.681 228.348,128.984 228.000,128.681 228.000 C 128.616 228.000,127.851 228.765,126.981 229.700 M298.493 278.000 C 298.493 278.770,298.575 279.085,298.676 278.700 C 298.776 278.315,298.776 277.685,298.676 277.300 C 298.575 276.915,298.493 277.230,298.493 278.000 M71.781 318.500 L 70.200 320.200 71.900 318.619 C 73.481 317.148,73.784 316.800,73.481 316.800 C 73.416 316.800,72.651 317.565,71.781 318.500 " stroke="none" fill="#b68e30" fill-rule="evenodd"></path><path id="path6" d="M199.705 93.487 C 200.314 93.579,201.214 93.577,201.705 93.482 C 202.197 93.387,201.700 93.311,200.600 93.314 C 199.500 93.317,199.097 93.395,199.705 93.487 M204.905 93.487 C 205.514 93.579,206.414 93.577,206.905 93.482 C 207.397 93.387,206.900 93.311,205.800 93.314 C 204.700 93.317,204.297 93.395,204.905 93.487 M274.931 131.000 C 274.933 132.540,275.005 133.121,275.092 132.291 C 275.179 131.461,275.177 130.201,275.089 129.491 C 275.000 128.781,274.929 129.460,274.931 131.000 M138.920 150.800 C 138.920 152.010,138.995 152.505,139.087 151.900 C 139.178 151.295,139.178 150.305,139.087 149.700 C 138.995 149.095,138.920 149.590,138.920 150.800 M275.751 186.800 C 275.751 189.330,275.816 190.365,275.896 189.100 C 275.975 187.835,275.975 185.765,275.896 184.500 C 275.816 183.235,275.751 184.270,275.751 186.800 M124.101 187.400 C 124.105 188.280,124.187 188.593,124.283 188.095 C 124.379 187.598,124.375 186.878,124.275 186.495 C 124.175 186.113,124.096 186.520,124.101 187.400 M268.514 220.100 C 268.303 220.375,267.708 221.680,267.192 223.000 C 266.676 224.320,264.601 228.685,262.582 232.700 C 260.563 236.715,259.022 239.999,259.156 239.997 C 259.290 239.995,259.605 239.590,259.854 239.097 C 264.663 229.607,266.316 226.285,266.878 224.977 C 269.291 219.365,269.457 218.872,268.514 220.100 M133.741 226.700 C 134.265 227.745,135.531 230.310,136.553 232.400 C 137.575 234.490,138.957 237.100,139.623 238.200 C 140.290 239.300,140.938 240.515,141.064 240.900 C 141.190 241.285,141.446 241.600,141.633 241.600 C 141.820 241.600,141.246 240.295,140.358 238.700 C 139.470 237.105,137.541 233.330,136.072 230.312 C 134.602 227.294,133.262 224.819,133.093 224.812 C 132.925 224.805,133.216 225.655,133.741 226.700 M257.970 241.266 C 257.698 241.780,257.213 242.605,256.892 243.100 C 256.571 243.595,256.464 243.999,256.654 243.997 C 257.054 243.993,258.889 240.755,258.635 240.501 C 258.541 240.408,258.242 240.752,257.970 241.266 M142.009 242.220 C 142.014 242.429,142.370 243.050,142.800 243.600 C 143.230 244.150,143.586 244.825,143.591 245.100 C 143.596 245.375,143.780 245.600,144.000 245.600 C 144.220 245.600,144.400 245.836,144.400 246.125 C 144.400 246.413,144.715 247.008,145.100 247.446 C 145.485 247.885,145.980 248.522,146.200 248.862 C 147.970 251.597,149.185 253.252,151.957 256.698 L 155.146 260.662 155.335 270.031 C 155.514 278.924,155.750 281.436,156.797 285.600 C 157.046 286.590,157.349 287.897,157.471 288.505 C 157.593 289.113,157.851 289.708,158.046 289.829 C 158.241 289.949,158.400 290.476,158.400 291.000 C 158.400 291.524,158.580 292.064,158.800 292.200 C 159.020 292.336,159.200 292.797,159.200 293.224 C 159.200 293.651,159.370 294.000,159.578 294.000 C 159.787 294.000,159.589 292.965,159.139 291.700 C 156.466 284.186,155.600 278.415,155.600 268.128 L 155.600 260.397 152.992 257.298 C 151.557 255.594,148.641 251.590,146.512 248.400 C 142.230 241.985,141.996 241.664,142.009 242.220 M254.109 247.392 L 252.074 250.374 251.937 263.573 C 251.862 270.833,251.922 276.464,252.072 276.087 C 252.221 275.709,252.356 269.857,252.372 263.082 L 252.400 250.764 254.434 247.749 C 255.553 246.091,256.395 244.662,256.306 244.573 C 256.217 244.483,255.228 245.752,254.109 247.392 M251.053 278.541 C 250.886 279.388,250.841 280.175,250.955 280.288 C 251.258 280.591,251.697 278.585,251.514 277.732 C 251.420 277.290,251.237 277.611,251.053 278.541 M250.222 281.929 C 250.058 282.659,250.022 283.356,250.142 283.476 C 250.443 283.777,250.920 281.756,250.699 281.117 C 250.601 280.833,250.386 281.198,250.222 281.929 M248.912 286.803 C 247.105 292.502,244.986 297.092,242.195 301.352 C 241.817 301.928,241.678 302.400,241.886 302.400 C 242.095 302.400,242.520 301.905,242.832 301.300 C 243.144 300.695,243.489 300.110,243.599 300.000 C 245.070 298.534,250.270 285.809,249.878 284.634 C 249.800 284.399,249.365 285.375,248.912 286.803 M160.013 294.645 C 159.997 295.190,162.636 300.343,164.189 302.800 C 168.432 309.513,174.702 316.155,183.209 322.950 C 183.544 323.217,184.714 324.048,185.809 324.795 C 186.904 325.542,187.860 326.299,187.933 326.477 C 188.007 326.655,188.288 326.800,188.558 326.800 C 188.828 326.800,189.407 327.115,189.845 327.500 C 190.283 327.885,191.082 328.459,191.620 328.776 C 192.159 329.092,193.749 330.054,195.153 330.913 C 196.558 331.771,198.339 332.829,199.111 333.262 L 200.516 334.051 204.358 332.089 C 209.240 329.595,211.746 328.254,212.000 327.999 C 212.110 327.889,212.740 327.529,213.400 327.200 C 214.060 326.871,214.690 326.511,214.800 326.401 C 214.910 326.290,215.405 325.975,215.900 325.700 C 218.135 324.459,218.608 324.157,219.355 323.500 C 219.793 323.115,220.372 322.800,220.642 322.800 C 220.912 322.800,221.193 322.665,221.267 322.500 C 221.340 322.335,222.570 321.404,224.000 320.431 C 229.145 316.930,235.370 311.192,238.796 306.793 C 239.564 305.807,240.509 304.651,240.896 304.225 C 241.542 303.513,241.818 302.800,241.448 302.800 C 241.364 302.800,240.521 303.835,239.574 305.100 C 232.854 314.076,222.339 322.116,206.235 330.589 C 200.279 333.723,200.786 333.734,195.094 330.341 C 179.287 320.919,168.422 310.268,161.913 297.812 C 160.875 295.825,160.020 294.400,160.013 294.645 M165.400 337.136 C 163.128 338.524,163.204 337.483,163.098 368.500 C 163.044 384.285,163.135 397.200,163.300 397.200 C 163.557 397.200,163.791 373.518,163.798 346.868 L 163.800 339.136 164.922 338.168 C 166.025 337.217,167.639 336.953,169.420 337.431 C 171.433 337.972,171.385 337.286,171.606 369.200 L 171.813 399.000 171.906 369.286 C 172.010 336.541,172.138 338.313,169.560 336.980 C 168.064 336.206,166.848 336.251,165.400 337.136 M228.776 337.304 C 227.014 338.492,226.873 339.151,226.916 346.000 L 226.952 351.800 227.176 345.464 C 227.434 338.164,227.904 337.200,231.200 337.200 C 234.269 337.200,234.963 338.349,235.225 343.864 L 235.450 348.600 235.525 343.989 C 235.607 338.918,235.336 338.105,233.196 336.998 C 231.584 336.164,230.340 336.251,228.776 337.304 M227.334 354.800 C 227.334 356.450,227.405 357.125,227.491 356.300 C 227.578 355.475,227.578 354.125,227.491 353.300 C 227.405 352.475,227.334 353.150,227.334 354.800 M235.387 375.600 C 235.387 387.590,235.438 392.495,235.500 386.500 C 235.562 380.505,235.562 370.695,235.500 364.700 C 235.438 358.705,235.387 363.610,235.387 375.600 M226.986 377.800 C 226.986 388.800,227.037 393.242,227.100 387.672 C 227.163 382.102,227.162 373.102,227.100 367.672 C 227.037 362.242,226.985 366.800,226.986 377.800 " stroke="none" fill="#94948c" fill-rule="evenodd"></path><path id="path7" d="M214.200 24.367 L 217.800 24.600 215.900 25.919 C 214.855 26.645,214.000 27.337,214.000 27.457 C 214.000 27.577,214.838 27.073,215.862 26.337 C 218.419 24.501,218.179 24.205,214.102 24.167 L 210.600 24.134 214.200 24.367 M208.100 24.676 C 208.485 24.776,209.115 24.776,209.500 24.676 C 209.885 24.575,209.570 24.493,208.800 24.493 C 208.030 24.493,207.715 24.575,208.100 24.676 M202.600 25.210 C 202.066 25.447,202.398 25.486,203.600 25.327 C 204.590 25.196,205.475 25.024,205.567 24.944 C 205.914 24.643,203.364 24.872,202.600 25.210 M198.400 26.018 C 197.962 26.315,198.124 26.352,199.000 26.156 C 200.471 25.827,200.790 25.598,199.767 25.606 C 199.345 25.609,198.730 25.795,198.400 26.018 M210.987 30.100 L 208.600 32.600 211.100 30.213 C 212.475 28.899,213.600 27.774,213.600 27.713 C 213.600 27.417,213.205 27.778,210.987 30.100 M238.300 38.298 C 240.115 38.372,243.085 38.372,244.900 38.298 C 246.715 38.223,245.230 38.163,241.600 38.163 C 237.970 38.163,236.485 38.223,238.300 38.298 M231.700 38.676 C 232.085 38.776,232.715 38.776,233.100 38.676 C 233.485 38.575,233.170 38.493,232.400 38.493 C 231.630 38.493,231.315 38.575,231.700 38.676 M227.900 39.082 C 228.395 39.178,229.205 39.178,229.700 39.082 C 230.195 38.987,229.790 38.909,228.800 38.909 C 227.810 38.909,227.405 38.987,227.900 39.082 M253.505 39.083 C 254.002 39.179,254.722 39.175,255.105 39.075 C 255.487 38.975,255.080 38.896,254.200 38.901 C 253.320 38.905,253.007 38.987,253.505 39.083 M222.100 39.876 C 222.485 39.976,223.115 39.976,223.500 39.876 C 223.885 39.775,223.570 39.693,222.800 39.693 C 222.030 39.693,221.715 39.775,222.100 39.876 M265.233 41.344 C 265.325 41.423,265.940 41.608,266.600 41.756 C 267.476 41.952,267.638 41.915,267.200 41.618 C 266.660 41.253,264.832 40.998,265.233 41.344 M202.590 44.030 C 202.237 45.145,202.605 45.422,203.696 44.861 L 204.600 44.396 203.661 44.637 C 202.847 44.846,202.757 44.766,202.987 44.039 C 203.134 43.578,203.164 43.200,203.054 43.200 C 202.944 43.200,202.735 43.574,202.590 44.030 M132.791 51.900 L 129.400 55.400 132.900 52.009 C 134.825 50.144,136.400 48.569,136.400 48.509 C 136.400 48.218,135.941 48.649,132.791 51.900 M147.588 54.700 L 145.000 57.400 147.700 54.812 C 150.208 52.407,150.583 52.000,150.288 52.000 C 150.227 52.000,149.012 53.215,147.588 54.700 M137.022 57.022 C 136.872 57.825,136.828 58.562,136.926 58.660 C 137.024 58.757,137.227 58.181,137.378 57.378 C 137.528 56.575,137.572 55.838,137.474 55.740 C 137.376 55.643,137.173 56.219,137.022 57.022 M141.781 60.900 L 140.200 62.600 141.900 61.019 C 143.481 59.548,143.784 59.200,143.481 59.200 C 143.416 59.200,142.651 59.965,141.781 60.900 M262.433 61.744 C 262.525 61.823,263.860 61.984,265.400 62.101 C 267.027 62.225,267.781 62.181,267.200 61.997 C 266.211 61.683,262.112 61.466,262.433 61.744 M270.833 62.547 C 270.925 62.628,271.720 62.804,272.600 62.938 C 273.715 63.107,273.958 63.071,273.400 62.819 C 272.632 62.471,270.490 62.244,270.833 62.547 M275.633 63.344 C 275.725 63.423,276.340 63.608,277.000 63.756 C 277.876 63.952,278.038 63.915,277.600 63.618 C 277.060 63.253,275.232 62.998,275.633 63.344 M136.846 65.100 C 136.799 66.016,137.729 66.363,138.197 65.605 C 138.334 65.383,138.184 65.308,137.856 65.434 C 137.500 65.570,137.196 65.372,137.081 64.929 C 136.930 64.344,136.884 64.378,136.846 65.100 M119.400 70.400 C 119.059 71.060,118.869 71.600,118.979 71.600 C 119.089 71.600,119.459 71.060,119.800 70.400 C 120.141 69.740,120.331 69.200,120.221 69.200 C 120.111 69.200,119.741 69.740,119.400 70.400 M296.671 82.100 L 294.134 84.600 296.567 82.427 C 297.905 81.232,299.171 80.107,299.380 79.927 C 299.589 79.747,299.636 79.600,299.484 79.600 C 299.332 79.600,298.066 80.725,296.671 82.100 M110.249 96.215 C 110.112 96.573,110.015 97.166,110.034 97.533 C 110.053 97.900,110.227 97.669,110.421 97.020 C 110.798 95.758,110.665 95.133,110.249 96.215 M289.731 98.200 C 289.733 99.740,289.805 100.321,289.892 99.491 C 289.979 98.661,289.977 97.401,289.889 96.691 C 289.800 95.981,289.729 96.660,289.731 98.200 M108.493 106.000 C 108.493 106.770,108.575 107.085,108.676 106.700 C 108.776 106.315,108.776 105.685,108.676 105.300 C 108.575 104.915,108.493 105.230,108.493 106.000 M107.709 112.800 C 107.709 113.790,107.787 114.195,107.882 113.700 C 107.978 113.205,107.978 112.395,107.882 111.900 C 107.787 111.405,107.709 111.810,107.709 112.800 M292.658 114.000 C 292.975 115.725,293.202 116.051,293.194 114.767 C 293.191 114.235,293.011 113.530,292.794 113.200 C 292.518 112.778,292.477 113.015,292.658 114.000 M107.301 117.800 C 107.305 118.680,107.387 118.993,107.483 118.495 C 107.579 117.998,107.575 117.278,107.475 116.895 C 107.375 116.513,107.296 116.920,107.301 117.800 M293.693 119.600 C 293.693 120.370,293.775 120.685,293.876 120.300 C 293.976 119.915,293.976 119.285,293.876 118.900 C 293.775 118.515,293.693 118.830,293.693 119.600 M106.969 128.600 C 106.970 133.220,107.028 135.055,107.099 132.678 C 107.170 130.301,107.169 126.521,107.098 124.278 C 107.027 122.035,106.969 123.980,106.969 128.600 M294.509 125.600 C 294.509 126.590,294.587 126.995,294.682 126.500 C 294.778 126.005,294.778 125.195,294.682 124.700 C 294.587 124.205,294.509 124.610,294.509 125.600 M295.363 138.400 C 295.363 142.030,295.423 143.515,295.498 141.700 C 295.572 139.885,295.572 136.915,295.498 135.100 C 295.423 133.285,295.363 134.770,295.363 138.400 M107.709 144.000 C 107.709 144.990,107.787 145.395,107.882 144.900 C 107.978 144.405,107.978 143.595,107.882 143.100 C 107.787 142.605,107.709 143.010,107.709 144.000 M108.406 149.633 C 108.409 150.165,108.589 150.870,108.806 151.200 C 109.082 151.622,109.123 151.385,108.942 150.400 C 108.625 148.675,108.398 148.349,108.406 149.633 M294.493 150.000 C 294.493 150.770,294.575 151.085,294.676 150.700 C 294.776 150.315,294.776 149.685,294.676 149.300 C 294.575 148.915,294.493 149.230,294.493 150.000 M269.800 219.798 C 270.460 220.153,271.687 220.992,272.527 221.662 C 273.366 222.332,274.121 222.813,274.204 222.730 C 274.441 222.493,270.063 219.414,269.292 219.276 C 268.911 219.207,269.140 219.442,269.800 219.798 M278.412 227.007 C 280.056 228.771,281.482 230.159,281.582 230.092 C 281.682 230.025,280.337 228.582,278.594 226.885 L 275.425 223.800 278.412 227.007 M129.854 226.633 C 129.223 227.187,128.787 227.720,128.883 227.816 C 128.979 227.913,129.574 227.454,130.204 226.796 C 131.596 225.343,131.416 225.259,129.854 226.633 M124.410 231.790 C 123.220 232.995,122.326 234.036,122.423 234.105 C 122.521 234.173,123.574 233.188,124.763 231.915 C 127.506 228.981,127.267 228.897,124.410 231.790 M283.800 233.200 C 284.816 234.520,285.737 235.600,285.847 235.600 C 285.957 235.600,285.216 234.520,284.200 233.200 C 283.184 231.880,282.263 230.800,282.153 230.800 C 282.043 230.800,282.784 231.880,283.800 233.200 M120.271 236.446 C 119.430 237.520,118.823 238.400,118.923 238.400 C 119.205 238.400,122.108 234.773,121.945 234.624 C 121.865 234.551,121.112 235.371,120.271 236.446 M288.186 239.500 C 288.535 240.215,288.906 240.800,289.010 240.800 C 289.408 240.800,289.152 240.163,288.367 239.200 L 287.552 238.200 288.186 239.500 M117.287 240.500 C 115.827 242.656,115.512 243.200,115.720 243.200 C 115.812 243.200,116.544 242.210,117.347 241.000 C 118.151 239.790,118.725 238.800,118.623 238.800 C 118.522 238.800,117.920 239.565,117.287 240.500 M294.828 253.076 C 294.918 254.115,295.544 254.996,295.572 254.124 C 295.587 253.642,295.420 253.136,295.200 253.000 C 294.980 252.864,294.813 252.898,294.828 253.076 M296.644 258.600 C 296.973 260.071,297.202 260.390,297.194 259.367 C 297.191 258.945,297.005 258.330,296.782 258.000 C 296.485 257.562,296.448 257.724,296.644 258.600 M108.667 258.667 C 108.520 258.813,108.411 259.308,108.425 259.767 C 108.449 260.533,108.482 260.523,108.834 259.642 C 109.226 258.663,109.144 258.189,108.667 258.667 M297.468 261.800 C 297.771 263.777,298.002 264.114,297.994 262.567 C 297.991 261.925,297.816 261.130,297.605 260.800 C 297.345 260.391,297.301 260.710,297.468 261.800 M107.849 262.215 C 107.712 262.573,107.623 263.436,107.650 264.133 C 107.692 265.187,107.750 265.098,107.999 263.600 C 108.317 261.686,108.259 261.148,107.849 262.215 M107.057 267.500 C 106.737 269.435,106.800 279.518,107.140 280.724 C 107.283 281.232,107.400 278.127,107.400 273.824 C 107.400 265.217,107.408 265.372,107.057 267.500 M298.509 267.600 C 298.509 268.590,298.587 268.995,298.682 268.500 C 298.778 268.005,298.778 267.195,298.682 266.700 C 298.587 266.205,298.509 266.610,298.509 267.600 M298.953 274.200 C 298.953 276.840,299.018 277.868,299.097 276.484 C 299.175 275.101,299.174 272.941,299.095 271.684 C 299.016 270.428,298.952 271.560,298.953 274.200 M298.501 280.600 C 298.505 281.480,298.587 281.793,298.683 281.295 C 298.779 280.798,298.775 280.078,298.675 279.695 C 298.575 279.313,298.496 279.720,298.501 280.600 M107.628 284.033 C 107.644 284.785,107.812 285.760,108.003 286.200 C 108.226 286.715,108.267 286.287,108.118 285.000 C 107.844 282.622,107.589 282.119,107.628 284.033 M297.654 284.667 C 297.625 285.144,297.496 285.864,297.370 286.267 C 297.152 286.961,297.164 286.962,297.596 286.288 C 297.847 285.897,297.975 285.177,297.881 284.688 C 297.709 283.801,297.709 283.801,297.654 284.667 M296.277 289.077 C 295.900 290.093,295.658 290.991,295.738 291.072 C 295.819 291.152,296.200 290.393,296.585 289.385 C 296.970 288.376,297.212 287.479,297.123 287.390 C 297.035 287.301,296.654 288.060,296.277 289.077 M108.406 288.633 C 108.409 289.055,108.595 289.670,108.818 290.000 C 109.115 290.438,109.152 290.276,108.956 289.400 C 108.627 287.929,108.398 287.610,108.406 288.633 M109.206 291.833 C 109.209 292.255,109.395 292.870,109.618 293.200 C 109.915 293.638,109.952 293.476,109.756 292.600 C 109.427 291.129,109.198 290.810,109.206 291.833 M294.653 292.900 L 293.933 294.200 294.758 293.200 C 295.489 292.313,295.814 291.600,295.486 291.600 C 295.424 291.600,295.049 292.185,294.653 292.900 M303.000 301.080 C 303.714 301.790,311.229 306.770,310.981 306.370 C 310.849 306.156,309.179 304.937,307.271 303.662 C 303.441 301.103,302.374 300.458,303.000 301.080 M88.600 305.600 C 86.620 306.919,85.143 307.999,85.318 307.999 C 85.626 308.000,91.409 304.246,92.180 303.545 C 93.101 302.708,91.946 303.371,88.600 305.600 M311.600 306.925 C 311.600 307.024,312.261 307.609,313.068 308.225 C 313.876 308.841,314.411 309.141,314.256 308.891 C 313.940 308.379,311.600 306.647,311.600 306.925 M80.400 311.042 C 79.630 311.594,78.731 312.202,78.403 312.393 C 78.075 312.584,77.895 312.826,78.003 312.930 C 78.111 313.035,79.173 312.418,80.362 311.560 C 81.551 310.702,82.361 310.009,82.162 310.020 C 81.963 310.030,81.170 310.491,80.400 311.042 M75.200 315.045 C 72.527 317.265,71.782 318.025,73.400 316.881 C 74.894 315.824,77.870 313.232,77.600 313.224 C 77.490 313.220,76.410 314.040,75.200 315.045 M322.574 315.493 C 323.440 316.424,324.235 317.099,324.341 316.993 C 324.447 316.887,324.456 316.755,324.362 316.700 C 324.268 316.645,323.473 315.970,322.596 315.201 L 321.000 313.801 322.574 315.493 M324.800 317.499 C 324.800 317.683,325.652 318.636,326.693 319.617 C 327.735 320.598,328.140 320.871,327.593 320.223 C 325.914 318.235,324.800 317.148,324.800 317.499 M70.200 319.600 C 69.341 320.480,68.777 321.200,68.947 321.200 C 69.118 321.200,69.469 320.967,69.729 320.682 C 72.551 317.580,72.856 316.880,70.200 319.600 M328.800 321.765 C 328.800 322.076,332.411 326.800,332.649 326.800 C 332.754 326.800,332.342 326.125,331.733 325.300 C 330.041 323.009,328.800 321.514,328.800 321.765 M334.124 329.400 C 334.462 330.060,335.038 330.960,335.404 331.400 C 335.770 331.840,335.665 331.480,335.170 330.600 C 334.080 328.658,333.264 327.722,334.124 329.400 " stroke="none" fill="#c4a431" fill-rule="evenodd"></path><path id="path8" d="M111.026 165.314 C 98.764 171.767,99.336 186.380,112.400 200.375 C 115.800 204.018,124.282 209.600,126.417 209.600 C 127.101 209.600,127.972 210.831,127.987 211.820 C 127.994 212.271,128.143 212.811,128.318 213.020 C 128.493 213.229,128.869 214.120,129.152 215.000 C 129.435 215.880,130.012 217.363,130.434 218.296 C 130.855 219.228,131.208 220.218,131.218 220.496 C 131.239 221.083,133.155 224.762,133.182 224.267 C 133.192 224.083,132.280 221.563,131.155 218.667 C 130.030 215.770,128.804 212.590,128.429 211.600 C 127.752 209.810,126.724 209.026,123.200 207.612 C 115.787 204.637,106.893 194.475,103.758 185.400 C 102.949 183.057,102.746 175.868,103.446 174.361 C 103.692 173.832,104.142 172.860,104.446 172.200 C 105.326 170.294,108.891 167.095,111.555 165.822 C 112.900 165.179,114.000 164.506,114.000 164.326 C 114.000 163.827,113.596 163.961,111.026 165.314 M289.200 165.358 C 289.200 165.445,290.072 166.076,291.137 166.759 C 297.428 170.796,299.686 177.826,297.125 185.400 C 295.977 188.797,294.068 192.642,292.900 193.913 C 292.625 194.212,292.400 194.611,292.400 194.800 C 292.400 194.989,292.173 195.381,291.896 195.671 C 291.618 195.962,290.503 197.250,289.418 198.534 C 286.829 201.597,281.937 205.465,278.529 207.145 C 277.028 207.885,275.487 208.650,275.105 208.845 C 274.723 209.040,274.076 209.200,273.667 209.200 C 272.389 209.200,268.089 218.222,268.954 219.088 C 269.079 219.212,269.292 218.974,269.427 218.557 C 269.562 218.141,269.824 217.440,270.010 217.000 C 270.195 216.560,270.576 215.480,270.855 214.600 C 271.135 213.720,271.507 212.829,271.682 212.620 C 271.857 212.411,272.001 211.871,272.003 211.420 C 272.006 210.627,273.519 209.600,274.685 209.600 C 274.974 209.600,275.523 209.432,275.905 209.226 C 276.287 209.021,277.185 208.617,277.900 208.329 C 278.615 208.040,279.200 207.669,279.200 207.502 C 279.200 207.336,279.390 207.200,279.622 207.200 C 281.022 207.200,288.897 200.490,291.618 196.980 C 299.633 186.638,300.983 175.750,295.053 169.275 C 293.040 167.078,289.200 164.508,289.200 165.358 " stroke="none" fill="#fccc44" fill-rule="evenodd"></path></g></svg>