<svg width="0" height="0" class="hidden">
  <symbol xmlns="http://www.w3.org/2000/svg" viewBox="0 0 24 24" id="angle-double-left">
    <path d="M12 24a1 1 0 01-.707-.293l-8.171-8.172a5 5 0 010-7.07L11.293.293a1 1 0 011.414 1.414L4.536 9.879a3 3 0 000 4.242l8.171 8.172A1 1 0 0112 24z"></path>
    <path d="M22 24a1 1 0 01-.707-.293l-9.586-9.586a3 3 0 010-4.242L21.293.293a1 1 0 011.414 1.414l-9.586 9.586a1 1 0 000 1.414l9.586 9.586A1 1 0 0122 24z"></path>
  </symbol>
  <symbol xmlns="http://www.w3.org/2000/svg" viewBox="0 0 24 24" id="angle-double-right">
    <path d="M11.828 24a1 1 0 01-.707-1.707l8.172-8.172a3 3 0 000-4.242l-8.172-8.172A1 1 0 1112.535.293l8.172 8.172a5 5 0 010 7.07l-8.172 8.172a1 1 0 01-.707.293z"></path>
    <path d="M1.828 24a1 1 0 01-.707-1.707l9.586-9.586a1 1 0 000-1.414L1.121 1.707A1 1 0 012.535.293l9.586 9.586a3 3 0 010 4.242l-9.586 9.586a1 1 0 01-.707.293z"></path>
  </symbol>
  <symbol xmlns="http://www.w3.org/2000/svg" viewBox="0 0 24 24" id="angle-double-small-left">
    <path d="M10.482 19a1 1 0 01-.707-.293l-4.586-4.586a3 3 0 010-4.242l4.586-4.586a1 1 0 011.414 1.414L6.6 11.293a1 1 0 000 1.414l4.585 4.586A1 1 0 0110.482 19z"></path>
    <path d="M17.482 19a1 1 0 01-.707-.293l-6-6a1 1 0 010-1.414l6-6a1 1 0 111.414 1.414L12.9 12l5.293 5.293A1 1 0 0117.482 19z"></path>
  </symbol>
  <symbol xmlns="http://www.w3.org/2000/svg" viewBox="0 0 24 24" id="angle-double-small-right">
    <path d="M13.1 19a1 1 0 01-.708-1.707l4.586-4.586a1 1 0 000-1.414L12.4 6.707a1 1 0 011.415-1.414L18.4 9.879a3 3 0 010 4.242l-4.586 4.586A1 1 0 0113.1 19z"></path>
    <path d="M6.1 19a1 1 0 01-.7-1.707L10.689 12 5.4 6.707a1 1 0 011.411-1.414l6 6a1 1 0 010 1.414l-6 6A1 1 0 016.1 19z"></path>
  </symbol>
  <symbol xmlns="http://www.w3.org/2000/svg" viewBox="0 0 24 24" id="angle-down">
    <path d="M12 17.169a4.985 4.985 0 01-3.536-1.462L.293 7.535a1 1 0 011.414-1.414l8.171 8.172a3.005 3.005 0 004.244 0l8.171-8.172a1 1 0 111.414 1.414l-8.171 8.172A4.985 4.985 0 0112 17.169z"></path>
  </symbol>
  <symbol xmlns="http://www.w3.org/2000/svg" viewBox="0 0 24 24" id="angle-left">
    <path d="M17.172 24a1 1 0 01-.707-.293l-8.172-8.172a5 5 0 010-7.07L16.465.293a1 1 0 011.414 1.414L9.707 9.879a3 3 0 000 4.242l8.172 8.172A1 1 0 0117.172 24z"></path>
  </symbol>
  <symbol xmlns="http://www.w3.org/2000/svg" viewBox="0 0 24 24" id="angle-right">
    <path d="M7 24a1 1 0 01-.707-1.707l8.172-8.172a3 3 0 000-4.242L6.293 1.707A1 1 0 017.707.293l8.172 8.172a5.005 5.005 0 010 7.07l-8.172 8.172A1 1 0 017 24z"></path>
  </symbol>
  <symbol xmlns="http://www.w3.org/2000/svg" viewBox="0 0 24 24" id="angle-small-down">
    <path d="M18.707 8.207a1 1 0 00-1.414 0l-4.586 4.586a1.021 1.021 0 01-1.414 0L6.707 8.207a1 1 0 00-1.414 1.414l4.585 4.586a3 3 0 004.243 0l4.586-4.586a1 1 0 000-1.414z"></path>
  </symbol>
  <symbol xmlns="http://www.w3.org/2000/svg" viewBox="0 0 24 24" id="angle-small-left">
    <path d="M10.6 12.707a1 1 0 010-1.414l4.585-4.586a1 1 0 00-1.414-1.414L9.189 9.879a3 3 0 000 4.242l4.586 4.586a1 1 0 001.414-1.414z"></path>
  </symbol>
  <symbol xmlns="http://www.w3.org/2000/svg" viewBox="0 0 24 24" id="angle-small-right">
    <path d="M15.4 9.879l-4.589-4.586A1 1 0 009.4 6.707l4.586 4.586a1 1 0 010 1.414L9.4 17.293a1 1 0 001.415 1.414l4.585-4.586a3 3 0 000-4.242z"></path>
  </symbol>
  <symbol xmlns="http://www.w3.org/2000/svg" viewBox="0 0 24 24" id="angle-small-up">
    <path d="M18 15.5a1 1 0 01-.707-.293l-4.586-4.586a1.021 1.021 0 00-1.414 0l-4.586 4.586a1 1 0 01-1.414-1.414l4.586-4.586a3.073 3.073 0 014.243 0l4.585 4.586A1 1 0 0118 15.5z"></path>
  </symbol>
  <symbol xmlns="http://www.w3.org/2000/svg" viewBox="0 0 24 24" id="angle-up">
    <path d="M23.707 16.293l-8.171-8.172a5.008 5.008 0 00-7.072 0L.293 16.293a1 1 0 001.414 1.414l8.171-8.172a3.008 3.008 0 014.244 0l8.171 8.172a1 1 0 001.414-1.414z"></path>
  </symbol>
  <symbol xmlns="http://www.w3.org/2000/svg" viewBox="0 0 24 24" id="arrow-down">
    <path d="M18.048 17.788a1 1 0 00-1.414 0L13 21.419V1a1 1 0 00-1-1 1 1 0 00-1 1v20.408l-3.619-3.62A1 1 0 105.967 19.2l3.919 3.919a3 3 0 004.243 0l3.919-3.919a1 1 0 000-1.412z"></path>
  </symbol>
  <symbol xmlns="http://www.w3.org/2000/svg" viewBox="0 0 24 24" id="arrow-left">
    <path d="M.876 14.088l3.879 3.879a1 1 0 001.414 0 1 1 0 000-1.414L2.614 13H23a1 1 0 001-1 1 1 0 00-1-1H2.553l3.616-3.619a1 1 0 000-1.414 1 1 0 00-1.414 0L.875 9.846a3.007 3.007 0 00.001 4.242z"></path>
  </symbol>
  <symbol xmlns="http://www.w3.org/2000/svg" viewBox="0 0 24 24" id="arrow-right">
    <path d="M23.124 9.907l-3.879-3.878a1 1 0 00-1.414 0 1 1 0 000 1.414L21.386 11H1a1 1 0 00-1 1 1 1 0 001 1h20.447l-3.616 3.615a1 1 0 000 1.415 1 1 0 001.414 0l3.88-3.879a3.008 3.008 0 00-.001-4.244z"></path>
  </symbol>
  <symbol xmlns="http://www.w3.org/2000/svg" viewBox="0 0 24 24" id="arrow-small-down">
    <path d="M17.707 13.121a1 1 0 00-1.414 0L13 16.413 12.993 6a1 1 0 00-2 0L11 16.414l-3.293-3.293a1 1 0 10-1.414 1.414l3.585 3.586a3 3 0 004.243 0l3.586-3.586a1 1 0 000-1.414z"></path>
  </symbol>
  <symbol xmlns="http://www.w3.org/2000/svg" viewBox="0 0 24 24" id="arrow-small-left">
    <path d="M10.88 17.715a1 1 0 000-1.415l-3.292-3.293L18 13a1 1 0 000-2l-10.414.007 3.294-3.292A1 1 0 009.466 6.3L5.88 9.886a3 3 0 000 4.243l3.586 3.586a1 1 0 001.414 0z"></path>
  </symbol>
  <symbol xmlns="http://www.w3.org/2000/svg" viewBox="0 0 24 24" id="arrow-small-right">
    <path d="M13.121 6.293a1 1 0 000 1.414L16.413 11 6 11.007a1 1 0 100 2L16.414 13l-3.293 3.293a1 1 0 101.414 1.414l3.586-3.585a3 3 0 000-4.243l-3.586-3.586a1 1 0 00-1.414 0z"></path>
  </symbol>
  <symbol xmlns="http://www.w3.org/2000/svg" viewBox="0 0 24 24" id="arrow-small-up">
    <path d="M6.293 10.879a1 1 0 001.414 0L11 7.587 11.007 18a1 1 0 002 0L13 7.586l3.293 3.293a1 1 0 101.414-1.414l-3.585-3.586a3 3 0 00-4.243 0L6.293 9.465a1 1 0 000 1.414z"></path>
  </symbol>
  <symbol xmlns="http://www.w3.org/2000/svg" viewBox="0 0 24 24" id="arrow-up">
    <path d="M18.707 5.462L14.121.875a3.007 3.007 0 00-4.242 0L5.293 5.462a1 1 0 101.414 1.414L11 2.584V23a1 1 0 002 0V2.583l4.293 4.293a1 1 0 101.414-1.414z"></path>
  </symbol>
  <symbol xmlns="http://www.w3.org/2000/svg" viewBox="0 0 24 24" id="ban">
    <path d="M12 0a12 12 0 1012 12A12.013 12.013 0 0012 0zm0 2a9.949 9.949 0 016.324 2.262L4.262 18.324A9.992 9.992 0 0112 2zm0 20a9.949 9.949 0 01-6.324-2.262L19.738 5.676A9.992 9.992 0 0112 22z"></path>
  </symbol>
  <symbol xmlns="http://www.w3.org/2000/svg" viewBox="0 0 24 24" id="book">
    <path d="M17 0H7a5.006 5.006 0 00-5 5v15a4 4 0 004 4h11a5.006 5.006 0 005-5V5a5.006 5.006 0 00-5-5zm3 5v11H8V2h9a3 3 0 013 3zM6 2.172V16a3.98 3.98 0 00-2 .537V5a3 3 0 012-2.828zM17 22H6a2 2 0 010-4h14v1a3 3 0 01-3 3z"></path>
  </symbol>
  <symbol xmlns="http://www.w3.org/2000/svg" viewBox="0 0 24 24" id="bookmark">
    <path d="M20.137 24a2.8 2.8 0 01-1.987-.835L12 17.051l-6.15 6.118a2.8 2.8 0 01-3.095.609A2.8 2.8 0 011 21.154V5a5 5 0 015-5h12a5 5 0 015 5v16.154a2.8 2.8 0 01-1.751 2.624 2.867 2.867 0 01-1.112.222zM6 2a3 3 0 00-3 3v16.154a.843.843 0 001.437.6l6.863-6.821a1 1 0 011.41 0l6.855 6.819a.843.843 0 001.437-.6V5a3 3 0 00-3-3z"></path>
  </symbol>
  <symbol xmlns="http://www.w3.org/2000/svg" viewBox="0 0 24 24" id="calendar">
    <path d="M19 2h-1V1a1 1 0 00-2 0v1H8V1a1 1 0 00-2 0v1H5a5.006 5.006 0 00-5 5v12a5.006 5.006 0 005 5h14a5.006 5.006 0 005-5V7a5.006 5.006 0 00-5-5zM2 7a3 3 0 013-3h14a3 3 0 013 3v1H2zm17 15H5a3 3 0 01-3-3v-9h20v9a3 3 0 01-3 3z"></path>
    <circle cx="12" cy="15" r="1.5"></circle>
    <circle cx="7" cy="15" r="1.5"></circle>
    <circle cx="17" cy="15" r="1.5"></circle>
  </symbol>
  <symbol xmlns="http://www.w3.org/2000/svg" viewBox="0 0 24 24" id="caret-down">
    <path d="M6.414 9h11.172a1 1 0 01.707 1.707l-5.586 5.586a1 1 0 01-1.414 0l-5.586-5.586A1 1 0 016.414 9z"></path>
  </symbol>
  <symbol xmlns="http://www.w3.org/2000/svg" viewBox="0 0 24 24" id="caret-left">
    <path d="M13.293 18.586L7.707 13a1 1 0 010-1.414L13.293 6A1 1 0 0115 6.707v11.172a1 1 0 01-1.707.707z"></path>
  </symbol>
  <symbol xmlns="http://www.w3.org/2000/svg" viewBox="0 0 24 24" id="caret-right">
    <path d="M9 17.879V6.707A1 1 0 0110.707 6l5.586 5.586a1 1 0 010 1.414l-5.586 5.586A1 1 0 019 17.879z"></path>
  </symbol>
  <symbol xmlns="http://www.w3.org/2000/svg" viewBox="0 0 24 24" id="caret-up">
    <path d="M6.414 16h11.172a1 1 0 00.707-1.707l-5.586-5.586a1 1 0 00-1.414 0l-5.586 5.586A1 1 0 006.414 16z"></path>
  </symbol>
  <symbol xmlns="http://www.w3.org/2000/svg" viewBox="0 0 24 24" id="check">
    <path d="M22.319 4.431L8.5 18.249a1 1 0 01-1.417 0L1.739 12.9a1 1 0 00-1.417 0 1 1 0 000 1.417l5.346 5.345a3.008 3.008 0 004.25 0L23.736 5.847a1 1 0 000-1.416 1 1 0 00-1.417 0z"></path>
  </symbol>
  <symbol xmlns="http://www.w3.org/2000/svg" viewBox="0 0 24 24" id="checkbox">
    <path d="M19 0H5a5.006 5.006 0 00-5 5v14a5.006 5.006 0 005 5h14a5.006 5.006 0 005-5V5a5.006 5.006 0 00-5-5zm3 19a3 3 0 01-3 3H5a3 3 0 01-3-3V5a3 3 0 013-3h14a3 3 0 013 3z"></path>
    <path d="M9.333 15.919L5.414 12A1 1 0 004 12a1 1 0 000 1.414l3.919 3.919a2 2 0 002.829 0L20 8.081a1 1 0 000-1.414 1 1 0 00-1.414 0z"></path>
  </symbol>
  <symbol xmlns="http://www.w3.org/2000/svg" viewBox="0 0 24 24" id="clip">
    <path d="M22.95 9.6a1 1 0 00-1.414 0L10.644 20.539a5 5 0 11-7.072-7.071L14.121 2.876a3 3 0 014.243 4.242L7.815 17.71a1.022 1.022 0 01-1.414 0 1 1 0 010-1.414l9.392-9.435a1 1 0 00-1.414-1.414l-9.392 9.435a3 3 0 000 4.243 3.073 3.073 0 004.243 0L19.778 8.532a5 5 0 00-7.071-7.07L2.158 12.054a7 7 0 009.9 9.9L22.95 11.018a1 1 0 000-1.418z"></path>
  </symbol>
  <symbol xmlns="http://www.w3.org/2000/svg" viewBox="0 0 24 24" id="comment">
    <path d="M24 11.247A12.012 12.012 0 1012.017 24H19a5.005 5.005 0 005-5v-7.753zM22 19a3 3 0 01-3 3h-6.983a10.041 10.041 0 01-7.476-3.343 9.917 9.917 0 01-2.476-7.814 10.043 10.043 0 018.656-8.761 10.564 10.564 0 011.3-.082A9.921 9.921 0 0118.4 4.3a10.041 10.041 0 013.6 7.042z"></path>
    <path d="M8 9h4a1 1 0 000-2H8a1 1 0 000 2zm8 2H8a1 1 0 000 2h8a1 1 0 000-2zm0 4H8a1 1 0 000 2h8a1 1 0 000-2z"></path>
  </symbol>
  <symbol xmlns="http://www.w3.org/2000/svg" viewBox="0 0 24 24" id="comment-alt">
    <path d="M20 0H4a4 4 0 00-4 4v12a4 4 0 004 4h2.9l4.451 3.763a1 1 0 001.292 0L17.1 20H20a4 4 0 004-4V4a4 4 0 00-4-4zm2 16a2 2 0 01-2 2h-2.9a2 2 0 00-1.291.473L12 21.69l-3.807-3.217A2 2 0 006.9 18H4a2 2 0 01-2-2V4a2 2 0 012-2h16a2 2 0 012 2z"></path>
    <path d="M7 7h5a1 1 0 000-2H7a1 1 0 000 2zm10 2H7a1 1 0 000 2h10a1 1 0 000-2zm0 4H7a1 1 0 000 2h10a1 1 0 000-2z"></path>
  </symbol>
  <symbol xmlns="http://www.w3.org/2000/svg" viewBox="0 0 24 24" id="copy">
    <path d="M15 20H5a5.006 5.006 0 01-5-5V5a5.006 5.006 0 015-5h10a5.006 5.006 0 015 5v10a5.006 5.006 0 01-5 5zM5 2a3 3 0 00-3 3v10a3 3 0 003 3h10a3 3 0 003-3V5a3 3 0 00-3-3zm19 17V6a1 1 0 00-2 0v13a3 3 0 01-3 3H6a1 1 0 000 2h13a5.006 5.006 0 005-5z"></path>
  </symbol>
  <symbol xmlns="http://www.w3.org/2000/svg" viewBox="0 0 24 24" id="copyright">
    <path d="M12 0a12 12 0 1012 12A12.013 12.013 0 0012 0zm0 22a10 10 0 1110-10 10.011 10.011 0 01-10 10z"></path>
    <path d="M15.536 8.464A1 1 0 0016.95 7.05a7 7 0 100 9.9 1 1 0 00-1.414-1.414 5 5 0 110-7.072z"></path>
  </symbol>
  <symbol xmlns="http://www.w3.org/2000/svg" viewBox="0 0 24 24" id="cross">
    <path d="M23.707.293a1 1 0 00-1.414 0L12 10.586 1.707.293a1 1 0 00-1.414 0 1 1 0 000 1.414L10.586 12 .293 22.293a1 1 0 000 1.414 1 1 0 001.414 0L12 13.414l10.293 10.293a1 1 0 001.414 0 1 1 0 000-1.414L13.414 12 23.707 1.707a1 1 0 000-1.414z"></path>
  </symbol>
  <symbol xmlns="http://www.w3.org/2000/svg" viewBox="0 0 24 24" id="cross-circle">
    <path d="M16 8a1 1 0 00-1.414 0L12 10.586 9.414 8A1 1 0 008 9.414L10.586 12 8 14.586A1 1 0 009.414 16L12 13.414 14.586 16A1 1 0 0016 14.586L13.414 12 16 9.414A1 1 0 0016 8z"></path>
    <path d="M12 0a12 12 0 1012 12A12.013 12.013 0 0012 0zm0 22a10 10 0 1110-10 10.011 10.011 0 01-10 10z"></path>
  </symbol>
  <symbol xmlns="http://www.w3.org/2000/svg" viewBox="0 0 24 24" id="cross-small">
    <path d="M18 6a1 1 0 00-1.414 0L12 10.586 7.414 6A1 1 0 006 6a1 1 0 000 1.414L10.586 12 6 16.586A1 1 0 006 18a1 1 0 001.414 0L12 13.414 16.586 18A1 1 0 0018 18a1 1 0 000-1.414L13.414 12 18 7.414A1 1 0 0018 6z"></path>
  </symbol>
  <symbol xmlns="http://www.w3.org/2000/svg" viewBox="0 0 24 24" id="cursor">
    <path d="M15.008 24a3.007 3.007 0 01-2.681-1.636L9.2 15.66l-3.542 3.093A1 1 0 014 18V2.98A3 3 0 018.989.734l10.7 10.238a1 1 0 01-.6 1.719l-4.468.407 3.065 6.569A3 3 0 0115.008 24zM9.543 13.032a1.039 1.039 0 01.207.021 1 1 0 01.7.556l3.675 7.876a1 1 0 001.767-.94l-3.682-7.891a1 1 0 01.815-1.419l3.7-.337-9.091-8.692a.972.972 0 00-1.045-.138A.986.986 0 006 2.98V15.8l2.885-2.52a1 1 0 01.658-.248z"></path>
  </symbol>
  <symbol xmlns="http://www.w3.org/2000/svg" viewBox="0 0 24 24" id="cursor-finger">
    <path d="M17.98 9.376L12 8.18V3.107A3.081 3.081 0 009.5.041 3 3 0 006 3v6.661L3.211 13.3a5.021 5.021 0 00.249 6.794l2.4 2.425A5.036 5.036 0 009.414 24H17a5.006 5.006 0 005-5v-4.721a5.013 5.013 0 00-4.02-4.903zM20 19a3 3 0 01-3 3H9.414a3.022 3.022 0 01-2.134-.891l-2.4-2.428a3.03 3.03 0 01-.116-4.123L6 12.945V17a1 1 0 002 0V3a1 1 0 011.176-.985A1.082 1.082 0 0110 3.107V9a1 1 0 00.8.98l6.784 1.357A3.01 3.01 0 0120 14.279z"></path>
  </symbol>
  <symbol xmlns="http://www.w3.org/2000/svg" viewBox="0 0 24 24" id="cursor-plus">
    <path d="M16 8a8 8 0 108 8 8.009 8.009 0 00-8-8zm0 14a6 6 0 116-6 6.006 6.006 0 01-6 6zm4-6a1 1 0 01-1 1h-2v2a1 1 0 01-2 0v-2h-2a1 1 0 010-2h2v-2a1 1 0 012 0v2h2a1 1 0 011 1zM12 4.981a1 1 0 00-.586-.891L2.739.146a.893.893 0 00-.09-.037A1.99 1.99 0 00.588.588a2.011 2.011 0 00-.442 2.151l3.944 8.675a1 1 0 00.891.586H5a1 1 0 00.895-.553l1.85-3.7 3.7-1.85A1 1 0 0012 4.981zM6.553 6.105a1 1 0 00-.448.448L5.041 8.681 2 2.005l6.679 3.038z"></path>
  </symbol>
  <symbol xmlns="http://www.w3.org/2000/svg" viewBox="0 0 24 24" id="delete">
    <path d="M19 2H9.956A4.966 4.966 0 006.01 3.931l-5.8 7.455a1 1 0 000 1.228l5.8 7.455A4.966 4.966 0 009.956 22H19a5.006 5.006 0 005-5V7a5.006 5.006 0 00-5-5zm3 15a3 3 0 01-3 3H9.956a2.979 2.979 0 01-2.368-1.158L2.267 12l5.321-6.842A2.979 2.979 0 019.956 4H19a3 3 0 013 3zm-4.793-6.793L15.414 12l1.793 1.793a1 1 0 11-1.414 1.414L14 13.414l-1.793 1.793a1 1 0 01-1.414-1.414L12.586 12l-1.793-1.793a1 1 0 011.414-1.414L14 10.586l1.793-1.793a1 1 0 011.414 1.414z"></path>
  </symbol>
  <symbol xmlns="http://www.w3.org/2000/svg" viewBox="0 0 24 24" id="disk">
    <path d="M12 10a4 4 0 104 4 4 4 0 00-4-4zm0 6a2 2 0 112-2 2 2 0 01-2 2z"></path>
    <path d="M22.536 4.122l-2.658-2.658A4.966 4.966 0 0016.343 0H5a5.006 5.006 0 00-5 5v14a5.006 5.006 0 005 5h14a5.006 5.006 0 005-5V7.657a4.966 4.966 0 00-1.464-3.535zM17 2.08V3a3 3 0 01-3 3h-4a3 3 0 01-3-3V2h9.343a2.953 2.953 0 01.657.08zM22 19a3 3 0 01-3 3H5a3 3 0 01-3-3V5a3 3 0 013-3v1a5.006 5.006 0 005 5h4a4.991 4.991 0 004.962-4.624l2.16 2.16A3.02 3.02 0 0122 7.657z"></path>
  </symbol>
  <symbol xmlns="http://www.w3.org/2000/svg" viewBox="0 0 24 24" id="document">
    <path d="M17 14a1 1 0 01-1 1H8a1 1 0 010-2h8a1 1 0 011 1zm-4 3H8a1 1 0 000 2h5a1 1 0 000-2zm9-6.515V19a5.006 5.006 0 01-5 5H7a5.006 5.006 0 01-5-5V5a5.006 5.006 0 015-5h4.515a6.958 6.958 0 014.95 2.05l3.484 3.486A6.951 6.951 0 0122 10.485zm-6.949-7.021A5.01 5.01 0 0014 2.684V7a1 1 0 001 1h4.316a4.983 4.983 0 00-.781-1.05zM20 10.485c0-.165-.032-.323-.047-.485H15a3 3 0 01-3-3V2.047c-.162-.015-.321-.047-.485-.047H7a3 3 0 00-3 3v14a3 3 0 003 3h10a3 3 0 003-3z"></path>
  </symbol>
  <symbol xmlns="http://www.w3.org/2000/svg" viewBox="0 0 24 24" id="dollar">
    <path d="M13.932 4A3.071 3.071 0 0117 7.068a1 1 0 002 0v-.123A5.073 5.073 0 0013.932 2H13V1a1 1 0 00-2 0v1h-.932a5.068 5.068 0 00-1.6 9.875L11 12.72V20h-.932A3.071 3.071 0 017 16.932a1 1 0 00-2 0v.123A5.073 5.073 0 0010.068 22H11v1a1 1 0 002 0v-1h.932a5.068 5.068 0 001.6-9.875L13 11.28V4zm.97 10.021a3.068 3.068 0 01-.97 5.979H13v-6.613zM11 10.613l-1.9-.634A3.068 3.068 0 0110.068 4H11z"></path>
  </symbol>
  <symbol xmlns="http://www.w3.org/2000/svg" viewBox="0 0 24 24" id="download">
    <path d="M23 16a1 1 0 00-1 1v4a1 1 0 01-1 1H3a1 1 0 01-1-1v-4a1 1 0 00-1-1 1 1 0 00-1 1v4a3 3 0 003 3h18a3 3 0 003-3v-4a1 1 0 00-1-1z"></path>
    <path d="M5.293 13.538l4.586 4.587a3.007 3.007 0 004.242 0l4.586-4.586a1 1 0 10-1.414-1.414L13 16.416V1a1 1 0 00-2 0v15.417l-4.293-4.293a1 1 0 10-1.414 1.414z"></path>
  </symbol>
  <symbol xmlns="http://www.w3.org/2000/svg" viewBox="0 0 24 24" id="edit">
    <path d="M18.656.93L6.464 13.122A4.966 4.966 0 005 16.657V18a1 1 0 001 1h1.343a4.966 4.966 0 003.535-1.464L23.07 5.344a3.125 3.125 0 000-4.414 3.194 3.194 0 00-4.414 0zm3 3L9.464 16.122A3.02 3.02 0 017.343 17H7v-.343a3.02 3.02 0 01.878-2.121L20.07 2.344a1.148 1.148 0 011.586 0 1.123 1.123 0 010 1.586z"></path>
    <path d="M23 8.979a1 1 0 00-1 1V15h-4a3 3 0 00-3 3v4H5a3 3 0 01-3-3V5a3 3 0 013-3h9.042a1 1 0 000-2H5a5.006 5.006 0 00-5 5v14a5.006 5.006 0 005 5h11.343a4.968 4.968 0 003.536-1.464l2.656-2.658A4.968 4.968 0 0024 16.343V9.979a1 1 0 00-1-1zm-4.535 12.143a2.975 2.975 0 01-1.465.8V18a1 1 0 011-1h3.925a3.016 3.016 0 01-.8 1.464z"></path>
  </symbol>
  <symbol xmlns="http://www.w3.org/2000/svg" viewBox="0 0 24 24" id="envelope">
    <path d="M19 1H5a5.006 5.006 0 00-5 5v12a5.006 5.006 0 005 5h14a5.006 5.006 0 005-5V6a5.006 5.006 0 00-5-5zM5 3h14a3 3 0 012.78 1.887l-7.658 7.659a3.007 3.007 0 01-4.244 0L2.22 4.887A3 3 0 015 3zm14 18H5a3 3 0 01-3-3V7.5l6.464 6.46a5.007 5.007 0 007.072 0L22 7.5V18a3 3 0 01-3 3z"></path>
  </symbol>
  <symbol xmlns="http://www.w3.org/2000/svg" viewBox="0 0 24 24" id="euro">
    <path d="M21.715 18.363A10 10 0 014.461 15H15a1 1 0 000-2H4.051a9.829 9.829 0 010-2H15a1 1 0 000-2H4.461a10 10 0 0117.254-3.363 1 1 0 001.542-1.274A11.989 11.989 0 002.4 9H1a1 1 0 000 2h1.051c-.028.331-.051.662-.051 1s.023.669.051 1H1a1 1 0 000 2h1.4a11.989 11.989 0 0020.862 4.637 1 1 0 00-1.542-1.274z"></path>
  </symbol>
  <symbol xmlns="http://www.w3.org/2000/svg" viewBox="0 0 24 24" id="exclamation">
    <path d="M12 0a12 12 0 1012 12A12.013 12.013 0 0012 0zm0 22a10 10 0 1110-10 10.011 10.011 0 01-10 10z"></path>
    <path d="M12 5a1 1 0 00-1 1v8a1 1 0 002 0V6a1 1 0 00-1-1z"></path>
    <rect x="11" y="17" width="2" height="2" rx="1"></rect>
  </symbol>
  <symbol xmlns="http://www.w3.org/2000/svg" viewBox="0 0 24 24" id="eye">
    <path d="M23.271 9.419C21.72 6.893 18.192 2.655 12 2.655S2.28 6.893.729 9.419a4.908 4.908 0 000 5.162C2.28 17.107 5.808 21.345 12 21.345s9.72-4.238 11.271-6.764a4.908 4.908 0 000-5.162zm-1.705 4.115C20.234 15.7 17.219 19.345 12 19.345S3.766 15.7 2.434 13.534a2.918 2.918 0 010-3.068C3.766 8.3 6.781 4.655 12 4.655s8.234 3.641 9.566 5.811a2.918 2.918 0 010 3.068z"></path>
    <path d="M12 7a5 5 0 105 5 5.006 5.006 0 00-5-5zm0 8a3 3 0 113-3 3 3 0 01-3 3z"></path>
  </symbol>
  <symbol xmlns="http://www.w3.org/2000/svg" viewBox="0 0 24 24" id="eye-crossed">
    <path d="M23.271 9.419A15.866 15.866 0 0019.9 5.51l2.8-2.8a1 1 0 00-1.414-1.414l-3.045 3.049A12.054 12.054 0 0012 2.655c-6.191 0-9.719 4.238-11.271 6.764a4.908 4.908 0 000 5.162A15.866 15.866 0 004.1 18.49l-2.8 2.8a1 1 0 101.414 1.414l3.052-3.052A12.054 12.054 0 0012 21.345c6.191 0 9.719-4.238 11.271-6.764a4.908 4.908 0 000-5.162zM2.433 13.534a2.918 2.918 0 010-3.068C3.767 8.3 6.782 4.655 12 4.655a10.1 10.1 0 014.766 1.165l-2.013 2.013a4.992 4.992 0 00-6.92 6.92l-2.31 2.31a13.723 13.723 0 01-3.09-3.529zM15 12a3 3 0 01-3 3 2.951 2.951 0 01-1.285-.3l3.985-3.985A2.951 2.951 0 0115 12zm-6 0a3 3 0 013-3 2.951 2.951 0 011.285.3L9.3 13.285A2.951 2.951 0 019 12zm12.567 1.534C20.233 15.7 17.218 19.345 12 19.345a10.1 10.1 0 01-4.766-1.165l2.013-2.013a4.992 4.992 0 006.92-6.92l2.31-2.31a13.723 13.723 0 013.09 3.529 2.918 2.918 0 010 3.068z"></path>
  </symbol>
  <symbol xmlns="http://www.w3.org/2000/svg" viewBox="0 0 24 24" id="file">
    <path d="M19.949 5.536L16.465 2.05A6.958 6.958 0 0011.515 0H7a5.006 5.006 0 00-5 5v14a5.006 5.006 0 005 5h10a5.006 5.006 0 005-5v-8.515a6.951 6.951 0 00-2.051-4.949zM18.535 6.95A4.983 4.983 0 0119.316 8H15a1 1 0 01-1-1V2.684a5.01 5.01 0 011.051.78zM20 19a3 3 0 01-3 3H7a3 3 0 01-3-3V5a3 3 0 013-3h4.515c.164 0 .323.032.485.047V7a3 3 0 003 3h4.953c.015.162.047.32.047.485z"></path>
  </symbol>
  <symbol xmlns="http://www.w3.org/2000/svg" viewBox="0 0 24 24" id="file-add">
    <path d="M16 16a1 1 0 01-1 1h-2v2a1 1 0 01-2 0v-2H9a1 1 0 010-2h2v-2a1 1 0 012 0v2h2a1 1 0 011 1zm6-5.515V19a5.006 5.006 0 01-5 5H7a5.006 5.006 0 01-5-5V5a5.006 5.006 0 015-5h4.515a6.958 6.958 0 014.95 2.05l3.484 3.486A6.951 6.951 0 0122 10.485zm-6.949-7.021A5.01 5.01 0 0014 2.684V7a1 1 0 001 1h4.316a4.983 4.983 0 00-.781-1.05zM20 10.485c0-.165-.032-.323-.047-.485H15a3 3 0 01-3-3V2.047c-.162-.015-.321-.047-.485-.047H7a3 3 0 00-3 3v14a3 3 0 003 3h10a3 3 0 003-3z"></path>
  </symbol>
  <symbol xmlns="http://www.w3.org/2000/svg" viewBox="0 0 24 24" id="file-check">
    <path d="M19.95 5.536L16.464 2.05A6.954 6.954 0 0011.515 0H7a5.006 5.006 0 00-5 5v14a5.006 5.006 0 005 5h10a5.006 5.006 0 005-5v-8.515a6.954 6.954 0 00-2.05-4.949zM18.536 6.95A5.018 5.018 0 0119.317 8H15a1 1 0 01-1-1V2.683a5.018 5.018 0 011.05.781zM20 19a3 3 0 01-3 3H7a3 3 0 01-3-3V5a3 3 0 013-3h4.515c.165 0 .323.032.485.047V7a3 3 0 003 3h4.953c.015.162.047.32.047.485zm-3.276-5.689a1 1 0 01-.035 1.413L13.1 18.138a3 3 0 01-4.226-.017l-1.54-1.374a1 1 0 011.332-1.494l1.585 1.414a1 1 0 001.456.04l3.6-3.431a1 1 0 011.417.035z"></path>
  </symbol>
  <symbol xmlns="http://www.w3.org/2000/svg" viewBox="0 0 24 24" id="file-delete">
    <path d="M15.207 14.207L13.414 16l1.793 1.793a1 1 0 11-1.414 1.414L12 17.414l-1.793 1.793a1 1 0 01-1.414-1.414L10.586 16l-1.793-1.793a1 1 0 011.414-1.414L12 14.586l1.793-1.793a1 1 0 011.414 1.414zM22 10.485V19a5.006 5.006 0 01-5 5H7a5.006 5.006 0 01-5-5V5a5.006 5.006 0 015-5h4.515a6.958 6.958 0 014.95 2.05l3.484 3.486A6.951 6.951 0 0122 10.485zm-6.949-7.021A5.01 5.01 0 0014 2.684V7a1 1 0 001 1h4.316a4.983 4.983 0 00-.781-1.05zM20 10.485c0-.165-.032-.323-.047-.485H15a3 3 0 01-3-3V2.047c-.162-.015-.321-.047-.485-.047H7a3 3 0 00-3 3v14a3 3 0 003 3h10a3 3 0 003-3z"></path>
  </symbol>
  <symbol xmlns="http://www.w3.org/2000/svg" viewBox="0 0 24 24" id="heart">
    <path d="M17.5 1.917a6.4 6.4 0 00-5.5 3.3 6.4 6.4 0 00-5.5-3.3A6.8 6.8 0 000 8.967c0 4.547 4.786 9.513 8.8 12.88a4.974 4.974 0 006.4 0c4.014-3.367 8.8-8.333 8.8-12.88a6.8 6.8 0 00-6.5-7.05zm-3.585 18.4a2.973 2.973 0 01-3.83 0C4.947 16.006 2 11.87 2 8.967a4.8 4.8 0 014.5-5.05 4.8 4.8 0 014.5 5.05 1 1 0 002 0 4.8 4.8 0 014.5-5.05 4.8 4.8 0 014.5 5.05c0 2.903-2.947 7.039-8.085 11.346z"></path>
  </symbol>
  <symbol xmlns="http://www.w3.org/2000/svg" viewBox="0 0 24 24" id="home">
    <path d="M23.121 9.069l-7.585-7.586a5.008 5.008 0 00-7.072 0L.879 9.069A2.978 2.978 0 000 11.19v9.817a3 3 0 003 3h18a3 3 0 003-3V11.19a2.978 2.978 0 00-.879-2.121zM15 22.007H9v-3.934a3 3 0 016 0zm7-1a1 1 0 01-1 1h-4v-3.934a5 5 0 00-10 0v3.934H3a1 1 0 01-1-1V11.19a1.008 1.008 0 01.293-.707L9.878 2.9a3.008 3.008 0 014.244 0l7.585 7.586a1.008 1.008 0 01.293.704z"></path>
  </symbol>
  <symbol xmlns="http://www.w3.org/2000/svg" viewBox="0 0 24 24" id="hourglass">
    <path d="M17 24H7.005a4.02 4.02 0 01-3.045-1.4 3.945 3.945 0 01-.916-3.158A12.517 12.517 0 017.445 12a12.517 12.517 0 01-4.4-7.444A3.945 3.945 0 013.96 1.4 4.02 4.02 0 017.005 0H17a4.017 4.017 0 013.044 1.4 3.943 3.943 0 01.918 3.155A12.556 12.556 0 0116.551 12a12.557 12.557 0 014.406 7.448 3.944 3.944 0 01-.918 3.156A4.017 4.017 0 0117 24zm0-22H7.005a2.014 2.014 0 00-1.528.7 1.917 1.917 0 00-.455 1.556c.375 2.5 1.922 4.84 4.6 6.957a1 1 0 010 1.568c-2.678 2.119-4.222 4.461-4.6 6.96a1.917 1.917 0 00.455 1.559 2.014 2.014 0 001.528.7H17a2.014 2.014 0 001.528-.7 1.917 1.917 0 00.456-1.554c-.373-2.487-1.92-4.829-4.6-6.962a1 1 0 010-1.564c2.681-2.133 4.228-4.475 4.6-6.963a1.916 1.916 0 00-.461-1.557A2.014 2.014 0 0017 2z"></path>
  </symbol>

  <symbol xmlns="http://www.w3.org/2000/svg" viewBox="0 0 24 24" id="info">
    <path d="M12 0a12 12 0 1012 12A12.013 12.013 0 0012 0zm0 22a10 10 0 1110-10 10.011 10.011 0 01-10 10z"></path>
    <path d="M12 10h-1a1 1 0 000 2h1v6a1 1 0 002 0v-6a2 2 0 00-2-2z"></path>
    <circle cx="12" cy="6.5" r="1.5"></circle>
  </symbol>
  <symbol xmlns="http://www.w3.org/2000/svg" viewBox="0 0 24 24" id="interactive">
    <path d="M23.707 22.293l-1.077-1.077-1.73-1.727 2.789-2.789a1 1 0 00-.365-1.646L14.355 11.8a2 2 0 00-2.561 2.56l3.263 8.969a1 1 0 00.722.635 1.007 1.007 0 00.217.023 1 1 0 00.707-.293l2.786-2.794 1.727 1.727 1.077 1.077a1 1 0 001.414-1.414zM16.4 21.165l-2.724-7.49 7.49 2.724z"></path>
    <path d="M10 20a10 10 0 1110-10 1 1 0 01-2 0 8 8 0 10-8 8 1 1 0 010 2z"></path>
    <path d="M8.084 15.62a1 1 0 01-.383-.076 6 6 0 117.846-7.834 1 1 0 11-1.848.764A4 4 0 108.468 13.7a1 1 0 01-.384 1.924z"></path>
  </symbol>
  <symbol xmlns="http://www.w3.org/2000/svg" viewBox="0 0 24 24" id="interrogation">
    <path d="M12 0a12 12 0 1012 12A12.013 12.013 0 0012 0zm0 22a10 10 0 1110-10 10.011 10.011 0 01-10 10z"></path>
    <path d="M12.717 5.063A4 4 0 008 9a1 1 0 002 0 2 2 0 012.371-1.967 2.024 2.024 0 011.6 1.595 2 2 0 01-1 2.125A3.954 3.954 0 0011 14.257V15a1 1 0 002 0v-.743a1.982 1.982 0 01.93-1.752 4 4 0 00-1.213-7.442z"></path>
    <rect x="11" y="17" width="2" height="2" rx="1"></rect>
  </symbol>
  <symbol xmlns="http://www.w3.org/2000/svg" viewBox="0 0 24 24" id="list">
    <path d="M7 6h16a1 1 0 000-2H7a1 1 0 000 2zm16 5H7a1 1 0 000 2h16a1 1 0 000-2zm0 7H7a1 1 0 000 2h16a1 1 0 000-2z"></path>
    <circle cx="2" cy="5" r="2"></circle>
    <circle cx="2" cy="12" r="2"></circle>
    <circle cx="2" cy="19" r="2"></circle>
  </symbol>
  <symbol xmlns="http://www.w3.org/2000/svg" viewBox="0 0 24 24" id="list-check">
    <path d="M4 6a2.982 2.982 0 01-2.122-.879L.334 3.747a1 1 0 011.332-1.494l1.585 1.414a1 1 0 001.456.04L8.311.276a1 1 0 011.378 1.448L6.1 5.138A2.964 2.964 0 014 6zm20-2a1 1 0 00-1-1H13a1 1 0 000 2h10a1 1 0 001-1zM6.1 13.138l3.589-3.414a1 1 0 10-1.378-1.448l-3.6 3.431a1.023 1.023 0 01-1.414 0l-1.59-1.585a1 1 0 00-1.414 1.414l1.585 1.585a3 3 0 004.226.017zM24 12a1 1 0 00-1-1H13a1 1 0 000 2h10a1 1 0 001-1zM6.1 21.138l3.585-3.414a1 1 0 10-1.378-1.448l-3.6 3.431a1 1 0 01-1.456-.04l-1.585-1.414a1 1 0 00-1.332 1.494l1.544 1.374a3 3 0 004.226.017zM24 20a1 1 0 00-1-1H13a1 1 0 000 2h10a1 1 0 001-1z"></path>
  </symbol>
  <symbol xmlns="http://www.w3.org/2000/svg" viewBox="0 0 24 24" id="lock">
    <path d="M19 8.424V7A7 7 0 005 7v1.424A5 5 0 002 13v6a5.006 5.006 0 005 5h10a5.006 5.006 0 005-5v-6a5 5 0 00-3-4.576zM7 7a5 5 0 0110 0v1H7zm13 12a3 3 0 01-3 3H7a3 3 0 01-3-3v-6a3 3 0 013-3h10a3 3 0 013 3z"></path>
    <path d="M12 14a1 1 0 00-1 1v2a1 1 0 002 0v-2a1 1 0 00-1-1z"></path>
  </symbol>
  <symbol xmlns="http://www.w3.org/2000/svg" viewBox="0 0 24 24" id="marker">
    <path d="M12 6a4 4 0 104 4 4 4 0 00-4-4zm0 6a2 2 0 112-2 2 2 0 01-2 2z"></path>
    <path d="M12 24a5.271 5.271 0 01-4.311-2.2c-3.811-5.257-5.744-9.209-5.744-11.747a10.055 10.055 0 0120.11 0c0 2.538-1.933 6.49-5.744 11.747A5.271 5.271 0 0112 24zm0-21.819a7.883 7.883 0 00-7.874 7.874c0 2.01 1.893 5.727 5.329 10.466a3.145 3.145 0 005.09 0c3.436-4.739 5.329-8.456 5.329-10.466A7.883 7.883 0 0012 2.181z"></path>
  </symbol>
  <symbol xmlns="http://www.w3.org/2000/svg" viewBox="0 0 24 24" id="menu-dots">
    <circle cx="2" cy="12" r="2"></circle>
    <circle cx="12" cy="12" r="2"></circle>
    <circle cx="22" cy="12" r="2"></circle>
  </symbol>
  <symbol xmlns="http://www.w3.org/2000/svg" viewBox="0 0 24 24" id="menu-dots-vertical">
    <circle cx="12" cy="2" r="2"></circle>
    <circle cx="12" cy="12" r="2"></circle>
    <circle cx="12" cy="22" r="2"></circle>
  </symbol>
  <symbol xmlns="http://www.w3.org/2000/svg" viewBox="0 0 24 24" id="minus">
    <rect y="11" width="24" height="2" rx="1"></rect>
  </symbol>
  <symbol xmlns="http://www.w3.org/2000/svg" viewBox="0 0 24 24" id="minus-small">
    <rect x="6" y="11" width="12" height="2" rx="1"></rect>
  </symbol>
  <symbol xmlns="http://www.w3.org/2000/svg" viewBox="0 0 24 24" id="mode-landscape">
    <path d="M18 19a1 1 0 00.707-1.707l-6.172-6.171a5 5 0 00-7.07 0l-2.172 2.171a1 1 0 001.414 1.414l2.172-2.171a3.07 3.07 0 014.242 0l6.172 6.171A1 1 0 0018 19zm-2-8.5A3.5 3.5 0 1012.5 7a3.5 3.5 0 003.5 3.5zm0-5A1.5 1.5 0 1114.5 7 1.5 1.5 0 0116 5.5zM23 16a1 1 0 00-1 1v2a3 3 0 01-3 3h-2a1 1 0 000 2h2a5.006 5.006 0 005-5v-2a1 1 0 00-1-1zM1 8a1 1 0 001-1V5a3 3 0 013-3h2a1 1 0 000-2H5a5.006 5.006 0 00-5 5v2a1 1 0 001 1zm6 14H5a3 3 0 01-3-3v-2a1 1 0 00-2 0v2a5.006 5.006 0 005 5h2a1 1 0 000-2zM19 0h-2a1 1 0 000 2h2a3 3 0 013 3v2a1 1 0 002 0V5a5.006 5.006 0 00-5-5z"></path>
  </symbol>
  <symbol xmlns="http://www.w3.org/2000/svg" viewBox="0 0 24 24" id="paper-plane">
    <path d="M23.119.882a2.966 2.966 0 00-2.8-.8l-16 3.37a4.995 4.995 0 00-2.853 8.481l1.718 1.717a1 1 0 01.293.708v3.168a2.965 2.965 0 00.3 1.285l-.008.007.026.026A3 3 0 005.157 20.2l.026.026.007-.008a2.965 2.965 0 001.285.3h3.168a1 1 0 01.707.292l1.717 1.717A4.963 4.963 0 0015.587 24a5.049 5.049 0 001.605-.264 4.933 4.933 0 003.344-3.986l3.375-16.035a2.975 2.975 0 00-.792-2.833zM4.6 12.238l-1.719-1.717a2.94 2.94 0 01-.722-3.074 2.978 2.978 0 012.5-2.026L20.5 2.086 5.475 17.113v-2.755a2.978 2.978 0 00-.875-2.12zm13.971 7.17a3 3 0 01-5.089 1.712l-1.72-1.72a2.978 2.978 0 00-2.119-.878H6.888L21.915 3.5z"></path>
  </symbol>
  <symbol xmlns="http://www.w3.org/2000/svg" viewBox="0 0 24 24" id="pencil">
    <path d="M22.853 1.148a3.626 3.626 0 00-5.124 0L1.465 17.412A4.968 4.968 0 000 20.947V23a1 1 0 001 1h2.053a4.966 4.966 0 003.535-1.464L22.853 6.271a3.626 3.626 0 000-5.123zM5.174 21.122A3.022 3.022 0 013.053 22H2v-1.053a2.98 2.98 0 01.879-2.121L15.222 6.483l2.3 2.3zM21.438 4.857l-2.506 2.507-2.3-2.295 2.507-2.507a1.623 1.623 0 112.295 2.3z"></path>
  </symbol>
  <symbol xmlns="http://www.w3.org/2000/svg" viewBox="0 0 24 24" id="picture">
    <path d="M19 0H5a5.006 5.006 0 00-5 5v14a5.006 5.006 0 005 5h14a5.006 5.006 0 005-5V5a5.006 5.006 0 00-5-5zM5 2h14a3 3 0 013 3v14a2.951 2.951 0 01-.3 1.285l-9.163-9.163a5 5 0 00-7.072 0L2 14.586V5a3 3 0 013-3zm0 20a3 3 0 01-3-3v-1.586l4.878-4.878a3 3 0 014.244 0l9.163 9.164A2.951 2.951 0 0119 22z"></path>
    <path d="M16 10.5A3.5 3.5 0 1012.5 7a3.5 3.5 0 003.5 3.5zm0-5A1.5 1.5 0 1114.5 7 1.5 1.5 0 0116 5.5z"></path>
  </symbol>
  <symbol xmlns="http://www.w3.org/2000/svg" viewBox="0 0 24 24" id="play">
    <path d="M20.494 7.968l-9.54-7A5 5 0 003 5v14a5 5 0 007.957 4.031l9.54-7a5 5 0 000-8.064zm-1.184 6.45l-9.54 7A3 3 0 015 19V5a2.948 2.948 0 011.641-2.672A3.018 3.018 0 018.006 2a2.97 2.97 0 011.764.589l9.54 7a3 3 0 010 4.836z"></path>
  </symbol>
  <symbol xmlns="http://www.w3.org/2000/svg" viewBox="0 0 24 24" id="plus">
    <path d="M23 11H13V1a1 1 0 00-1-1 1 1 0 00-1 1v10H1a1 1 0 00-1 1 1 1 0 001 1h10v10a1 1 0 001 1 1 1 0 001-1V13h10a1 1 0 001-1 1 1 0 00-1-1z"></path>
  </symbol>
  <symbol xmlns="http://www.w3.org/2000/svg" viewBox="0 0 24 24" id="plus-small">
    <path d="M17 11h-4V7a1 1 0 00-1-1 1 1 0 00-1 1v4H7a1 1 0 00-1 1 1 1 0 001 1h4v4a1 1 0 001 1 1 1 0 001-1v-4h4a1 1 0 001-1 1 1 0 00-1-1z"></path>
  </symbol>
  <symbol xmlns="http://www.w3.org/2000/svg" viewBox="0 0 24 24" id="power">
    <path d="M15 3.849a1.02 1.02 0 00.629.926A9 9 0 0121 13.292 9 9 0 013 13a9 9 0 015.371-8.224A1.023 1.023 0 009 3.848a1 1 0 00-1.374-.929 11 11 0 108.751 0 1 1 0 00-1.377.93z"></path>
    <rect x="11" width="2" height="8" rx="1"></rect>
  </symbol>
  <symbol xmlns="http://www.w3.org/2000/svg" viewBox="0 0 24 24" id="redo">
    <path d="M0 23v-7a9.01 9.01 0 019-9h4.83V5.414A2 2 0 0117.244 4l5.88 5.879a3 3 0 010 4.242L17.244 20a2 2 0 01-3.414-1.414V17H8a6.006 6.006 0 00-6 6 1 1 0 01-2 0zM15.83 8a1 1 0 01-1 1H9a7.008 7.008 0 00-7 7v1.714A7.984 7.984 0 018 15h6.83a1 1 0 011 1v2.586l5.879-5.879a1 1 0 000-1.414L15.83 5.414z"></path>
  </symbol>
  <symbol xmlns="http://www.w3.org/2000/svg" viewBox="0 0 24 24" id="refresh">
    <path d="M23 12a.982.982 0 00-.988.878A9.986 9.986 0 014.924 19h2.745a1 1 0 100-2h-4a2 2 0 00-2 2v4a1 1 0 002 0v-2.438A11.977 11.977 0 0024 13.1a1.007 1.007 0 00-1-1.1zM21.331 0a1 1 0 00-1 1v2.438A11.977 11.977 0 000 10.9 1.007 1.007 0 001 12a.982.982 0 00.988-.878A9.986 9.986 0 0119.076 5h-2.745a1 1 0 000 2h4a2 2 0 002-2V1a1 1 0 00-1-1z"></path>
  </symbol>
  <symbol xmlns="http://www.w3.org/2000/svg" viewBox="0 0 24 24" id="rotate-right">
    <path d="M22.951 12a.982.982 0 00-.989.878A10.009 10.009 0 1119.128 5h-2.752a1 1 0 100 2h4a2 2 0 002-2V1a1 1 0 00-2 0v2.415A11.994 11.994 0 1023.95 13.1a1.007 1.007 0 00-.999-1.1z"></path>
  </symbol>
  <symbol xmlns="http://www.w3.org/2000/svg" viewBox="0 0 24 24" id="search">
    <path d="M23.707 22.293l-5.969-5.969a10.016 10.016 0 10-1.414 1.414l5.969 5.969a1 1 0 001.414-1.414zM10 18a8 8 0 118-8 8.009 8.009 0 01-8 8z"></path>
  </symbol>
  <symbol xmlns="http://www.w3.org/2000/svg" viewBox="0 0 24 24" id="settings">
    <path d="M12 8a4 4 0 104 4 4 4 0 00-4-4zm0 6a2 2 0 112-2 2 2 0 01-2 2z"></path>
    <path d="M21.294 13.9l-.444-.256a9.1 9.1 0 000-3.29l.444-.256a3 3 0 10-3-5.2l-.445.257A8.977 8.977 0 0015 3.513V3a3 3 0 00-6 0v.513a8.977 8.977 0 00-2.848 1.646L5.705 4.9a3 3 0 00-3 5.2l.444.256a9.1 9.1 0 000 3.29l-.444.256a3 3 0 103 5.2l.445-.257A8.977 8.977 0 009 20.487V21a3 3 0 006 0v-.513a8.977 8.977 0 002.848-1.646l.447.258a3 3 0 003-5.2zm-2.548-3.776a7.048 7.048 0 010 3.75 1 1 0 00.464 1.133l1.084.626a1 1 0 01-1 1.733l-1.086-.628a1 1 0 00-1.215.165 6.984 6.984 0 01-3.243 1.875 1 1 0 00-.751.969V21a1 1 0 01-2 0v-1.252a1 1 0 00-.751-.969A6.984 6.984 0 017.006 16.9a1 1 0 00-1.215-.165l-1.084.627a1 1 0 11-1-1.732l1.084-.626a1 1 0 00.464-1.133 7.048 7.048 0 010-3.75 1 1 0 00-.465-1.129l-1.084-.626a1 1 0 011-1.733l1.086.628A1 1 0 007.006 7.1a6.984 6.984 0 013.243-1.875A1 1 0 0011 4.252V3a1 1 0 012 0v1.252a1 1 0 00.751.969A6.984 6.984 0 0116.994 7.1a1 1 0 001.215.165l1.084-.627a1 1 0 111 1.732l-1.084.626a1 1 0 00-.463 1.129z"></path>
  </symbol>
  <symbol xmlns="http://www.w3.org/2000/svg" viewBox="0 0 24 24" id="settings-sliders">
    <path d="M1 4.75h2.736a3.728 3.728 0 007.195 0H23a1 1 0 000-2H10.931a3.728 3.728 0 00-7.195 0H1a1 1 0 000 2zM7.333 2a1.75 1.75 0 11-1.75 1.75A1.752 1.752 0 017.333 2zM23 11h-2.736a3.727 3.727 0 00-7.194 0H1a1 1 0 000 2h12.07a3.727 3.727 0 007.194 0H23a1 1 0 000-2zm-6.333 2.75a1.75 1.75 0 111.75-1.75 1.752 1.752 0 01-1.75 1.75zM23 19.25H10.931a3.728 3.728 0 00-7.195 0H1a1 1 0 000 2h2.736a3.728 3.728 0 007.195 0H23a1 1 0 000-2zM7.333 22a1.75 1.75 0 111.75-1.75A1.753 1.753 0 017.333 22z"></path>
  </symbol>
  <symbol xmlns="http://www.w3.org/2000/svg" viewBox="0 0 24 24" id="share">
    <path d="M19.333 14.667a4.66 4.66 0 00-3.839 2.024l-6.509-2.939a4.574 4.574 0 00.005-3.488l6.5-2.954a4.66 4.66 0 10-.827-2.643 4.633 4.633 0 00.08.786l-6.91 3.14a4.668 4.668 0 10-.015 6.827l6.928 3.128a4.736 4.736 0 00-.079.785 4.667 4.667 0 104.666-4.666zm0-12.667a2.667 2.667 0 11-2.666 2.667A2.669 2.669 0 0119.333 2zM4.667 14.667A2.667 2.667 0 117.333 12a2.67 2.67 0 01-2.666 2.667zM19.333 22A2.667 2.667 0 1122 19.333 2.669 2.669 0 0119.333 22z"></path>
  </symbol>
  <symbol xmlns="http://www.w3.org/2000/svg" viewBox="0 0 24 24" id="shopping-cart">
    <path d="M22.713 4.077A2.993 2.993 0 0020.41 3H4.242L4.2 2.649A3 3 0 001.222 0H1a1 1 0 000 2h.222a1 1 0 01.993.883l1.376 11.7A5 5 0 008.557 19H19a1 1 0 000-2H8.557a3 3 0 01-2.82-2h11.92a5 5 0 004.921-4.113l.785-4.354a2.994 2.994 0 00-.65-2.456zM21.4 6.178l-.786 4.354A3 3 0 0117.657 13H5.419l-.941-8H20.41a1 1 0 01.99 1.178z"></path>
    <circle cx="7" cy="22" r="2"></circle>
    <circle cx="17" cy="22" r="2"></circle>
  </symbol>
  <symbol xmlns="http://www.w3.org/2000/svg" viewBox="0 0 24 24" id="shopping-cart-add">
    <circle cx="7" cy="22" r="2"></circle>
    <circle cx="17" cy="22" r="2"></circle>
    <path d="M23 3h-2V1a1 1 0 00-2 0v2h-2a1 1 0 000 2h2v2a1 1 0 002 0V5h2a1 1 0 000-2z"></path>
    <path d="M21.771 9.726a.994.994 0 00-1.162.806A3 3 0 0117.657 13H5.418l-.94-8H13a1 1 0 000-2H4.242L4.2 2.648A3 3 0 001.222 0H1a1 1 0 000 2h.222a1 1 0 01.993.883l1.376 11.7A5 5 0 008.557 19H19a1 1 0 000-2H8.557a3 3 0 01-2.829-2h11.929a5 5 0 004.921-4.112 1 1 0 00-.807-1.162z"></path>
  </symbol>
  <symbol xmlns="http://www.w3.org/2000/svg" viewBox="0 0 24 24" id="shopping-cart-check">
    <circle cx="7" cy="22" r="2"></circle>
    <circle cx="17" cy="22" r="2"></circle>
    <path d="M23.685 1.336a1 1 0 00-1.414 0L17.112 6.5l-1.551-1.619a1 1 0 00-1.442 1.386l1.614 1.679a1.872 1.872 0 001.345.6h.033a1.873 1.873 0 001.335-.553l5.239-5.243a1 1 0 000-1.414z"></path>
    <path d="M21.9 9.016a1 1 0 00-1.162.807l-.128.709A3 3 0 0117.657 13H5.418l-.94-8H11a1 1 0 000-2H4.242L4.2 2.648A3 3 0 001.222 0H1a1 1 0 000 2h.222a1 1 0 01.993.883l1.376 11.7A5 5 0 008.557 19H19a1 1 0 000-2H8.557a3 3 0 01-2.829-2h11.929a5 5 0 004.921-4.113l.128-.71a1 1 0 00-.806-1.161z"></path>
  </symbol>
  <symbol xmlns="http://www.w3.org/2000/svg" viewBox="0 0 24 24" id="sign-in">
    <path d="M7 22H5a3 3 0 01-3-3V5a3 3 0 013-3h2a1 1 0 000-2H5a5.006 5.006 0 00-5 5v14a5.006 5.006 0 005 5h2a1 1 0 000-2z"></path>
    <path d="M10.462 5.293L5.875 9.879a3.007 3.007 0 000 4.242l4.586 4.586a1 1 0 101.414-1.414L7.584 13H23a1 1 0 000-2H7.583l4.293-4.293a1 1 0 10-1.414-1.414z"></path>
  </symbol>
  <symbol xmlns="http://www.w3.org/2000/svg" viewBox="0 0 24 24" id="sign-out">
    <path d="M7 22H5a3 3 0 01-3-3V5a3 3 0 013-3h2a1 1 0 000-2H5a5.006 5.006 0 00-5 5v14a5.006 5.006 0 005 5h2a1 1 0 000-2z"></path>
    <path d="M18.538 18.707l4.587-4.586a3.007 3.007 0 000-4.242l-4.587-4.586a1 1 0 00-1.414 1.414L21.416 11H6a1 1 0 000 2h15.417l-4.293 4.293a1 1 0 101.414 1.414z"></path>
  </symbol>
  <symbol xmlns="http://www.w3.org/2000/svg" viewBox="0 0 24 24" id="smartphone">
    <path d="M15 0H9a5.006 5.006 0 00-5 5v14a5.006 5.006 0 005 5h6a5.006 5.006 0 005-5V5a5.006 5.006 0 00-5-5zM9 2h6a3 3 0 013 3v11H6V5a3 3 0 013-3zm6 20H9a3 3 0 01-3-3v-1h12v1a3 3 0 01-3 3z"></path>
    <circle cx="12" cy="20" r="1"></circle>
  </symbol>
  <symbol xmlns="http://www.w3.org/2000/svg" viewBox="0 0 24 24" id="spinner-alt">
    <path d="M13 1v2a1 1 0 01-2 0V1a1 1 0 012 0zm-1 19a1 1 0 00-1 1v2a1 1 0 002 0v-2a1 1 0 00-1-1zm-8-8a1 1 0 00-1-1H1a1 1 0 000 2h2a1 1 0 001-1zm19-1h-2a1 1 0 000 2h2a1 1 0 000-2zm-4.982-9.382a1 1 0 00-1.367.364l-1 1.731a1 1 0 00.365 1.366.987.987 0 00.5.135 1 1 0 00.866-.5l1-1.731a1 1 0 00-.364-1.365zM7.987 18.921a1 1 0 00-1.366.364l-1 1.731a1 1 0 00.364 1.366.989.989 0 00.5.135 1 1 0 00.867-.5l1-1.731a1 1 0 00-.365-1.365zm-3.272-12.3l-1.731-1a1 1 0 00-1 1.731l1.731 1a1 1 0 001-1.731zm17.3 10.03l-1.731-1a1 1 0 00-1 1.731l1.731 1a.987.987 0 00.5.135 1 1 0 00.5-1.866zM7.349 1.982a1 1 0 00-1.731 1l1 1.731a1 1 0 00.866.5.987.987 0 00.5-.135 1 1 0 00.365-1.366zm10.03 17.3a1 1 0 00-1.731 1l1 1.731a1 1 0 001.731-1zm2.408-10.8a1 1 0 00.5-.134l1.731-1a1 1 0 00-1-1.731l-1.731 1a1 1 0 00.5 1.865zM3.713 15.648l-1.731 1a1 1 0 00.5 1.866.987.987 0 00.5-.135l1.731-1a1 1 0 00-1-1.731z"></path>
  </symbol>
  <symbol xmlns="http://www.w3.org/2000/svg" viewBox="0 0 24 24" id="star">
    <path d="M23.836 8.794a3.179 3.179 0 00-3.067-2.226H16.4l-1.327-4.136a3.227 3.227 0 00-6.146 0L7.6 6.568H3.231a3.227 3.227 0 00-1.9 5.832L4.887 15l-1.352 4.187A3.178 3.178 0 004.719 22.8a3.177 3.177 0 003.8-.019L12 20.219l3.482 2.559a3.227 3.227 0 004.983-3.591L19.113 15l3.56-2.6a3.177 3.177 0 001.163-3.606zm-2.343 1.991l-4.144 3.029a1 1 0 00-.362 1.116l1.575 4.87a1.227 1.227 0 01-1.895 1.365l-4.075-3a1 1 0 00-1.184 0l-4.075 3a1.227 1.227 0 01-1.9-1.365l1.58-4.87a1 1 0 00-.362-1.116l-4.144-3.029a1.227 1.227 0 01.724-2.217h5.1a1 1 0 00.952-.694l1.55-4.831a1.227 1.227 0 012.336 0l1.55 4.831a1 1 0 00.952.694h5.1a1.227 1.227 0 01.724 2.217z"></path>
  </symbol>
  <symbol xmlns="http://www.w3.org/2000/svg" viewBox="0 0 24 24" id="stats">
    <path d="M23 22H3a1 1 0 01-1-1V1a1 1 0 00-2 0v20a3 3 0 003 3h20a1 1 0 000-2z"></path>
    <path d="M15 20a1 1 0 001-1v-7a1 1 0 00-2 0v7a1 1 0 001 1zm-8 0a1 1 0 001-1v-7a1 1 0 00-2 0v7a1 1 0 001 1zm12 0a1 1 0 001-1V7a1 1 0 00-2 0v12a1 1 0 001 1zm-8 0a1 1 0 001-1V7a1 1 0 00-2 0v12a1 1 0 001 1z"></path>
  </symbol>
  <symbol xmlns="http://www.w3.org/2000/svg" viewBox="0 0 24 24" id="text-check">
    <path d="M11.107 14.447a1 1 0 101.789-.894l-5.5-11a1 1 0 00-1.789 0l-5.5 11a1 1 0 101.789.894L3.619 11h5.764zM4.619 9L6.5 5.236 8.383 9z"></path>
    <path d="M23.707 11.293a1 1 0 00-1.414 0L13 20.586l-4.293-4.293a1 1 0 10-1.414 1.414l5 5a1 1 0 001.414 0l10-10a1 1 0 000-1.414z"></path>
  </symbol>
  <symbol xmlns="http://www.w3.org/2000/svg" viewBox="0 0 24 24" id="thumbs-down">
    <path d="M23.951 12.3l-.705-5A5.024 5.024 0 0018.3 3H5a5.006 5.006 0 00-5 5v5a5.006 5.006 0 005 5h2.712l1.914 3.878a3.037 3.037 0 005.721-1.837L15.011 18H19a5 5 0 004.951-5.7zM5 5h2v11H5a3 3 0 01-3-3V8a3 3 0 013-3zm16.264 9.968A3 3 0 0119 16h-5.167a1 1 0 00-.987 1.162l.528 3.2a1.024 1.024 0 01-.233.84 1.07 1.07 0 01-1.722-.212L9.23 16.558a1 1 0 00-.23-.292V5h9.3a3.012 3.012 0 012.97 2.581l.706 5a3 3 0 01-.712 2.387z"></path>
  </symbol>
  <symbol xmlns="http://www.w3.org/2000/svg" viewBox="0 0 24 24" id="thumbs-up">
    <path d="M22.773 7.721A4.994 4.994 0 0019 6h-3.989l.336-2.041a3.037 3.037 0 00-5.721-1.837L7.712 6H5a5.006 5.006 0 00-5 5v5a5.006 5.006 0 005 5h13.3a5.024 5.024 0 004.951-4.3l.705-5a5 5 0 00-1.183-3.979zM2 16v-5a3 3 0 013-3h2v11H5a3 3 0 01-3-3zm19.971-4.581l-.706 5A3.012 3.012 0 0118.3 19H9V7.734a1 1 0 00.23-.292l2.189-4.435a1.07 1.07 0 011.722-.207 1.024 1.024 0 01.233.84l-.528 3.2A1 1 0 0013.833 8H19a3 3 0 012.971 3.419z"></path>
  </symbol>
  <symbol xmlns="http://www.w3.org/2000/svg" viewBox="0 0 24 24" id="trash">
    <path d="M21 4h-3.1A5.009 5.009 0 0013 0h-2a5.009 5.009 0 00-4.9 4H3a1 1 0 000 2h1v13a5.006 5.006 0 005 5h6a5.006 5.006 0 005-5V6h1a1 1 0 000-2zM11 2h2a3.006 3.006 0 012.829 2H8.171A3.006 3.006 0 0111 2zm7 17a3 3 0 01-3 3H9a3 3 0 01-3-3V6h12z"></path>
    <path d="M10 18a1 1 0 001-1v-6a1 1 0 00-2 0v6a1 1 0 001 1zm4 0a1 1 0 001-1v-6a1 1 0 00-2 0v6a1 1 0 001 1z"></path>
  </symbol>
  <symbol xmlns="http://www.w3.org/2000/svg" viewBox="0 0 24 24" id="unlock">
    <path d="M17 8H7V7a5 5 0 019.375-2.422 1 1 0 001.749-.971A7 7 0 005 7v1.424A5 5 0 002 13v6a5.006 5.006 0 005 5h10a5.006 5.006 0 005-5v-6a5.006 5.006 0 00-5-5zm3 11a3 3 0 01-3 3H7a3 3 0 01-3-3v-6a3 3 0 013-3h10a3 3 0 013 3z"></path>
    <path d="M12 14a1 1 0 00-1 1v2a1 1 0 002 0v-2a1 1 0 00-1-1z"></path>
  </symbol>
  <symbol xmlns="http://www.w3.org/2000/svg" viewBox="0 0 24 24" id="upload">
    <path d="M22 17v4a1 1 0 01-1 1H3a1 1 0 01-1-1v-4a1 1 0 00-1-1 1 1 0 00-1 1v4a3 3 0 003 3h18a3 3 0 003-3v-4a1 1 0 00-1-1 1 1 0 00-1 1z"></path>
    <path d="M18.707 5.462L14.121.875a3.007 3.007 0 00-4.242 0L5.293 5.462a1 1 0 101.414 1.414L11 2.584V18a1 1 0 002 0V2.583l4.293 4.293a1 1 0 101.414-1.414z"></path>
  </symbol>
  <symbol xmlns="http://www.w3.org/2000/svg" viewBox="0 0 24 24" id="user">
    <path d="M12 12a6 6 0 10-6-6 6.006 6.006 0 006 6zm0-10a4 4 0 11-4 4 4 4 0 014-4zm0 12a9.01 9.01 0 00-9 9 1 1 0 002 0 7 7 0 0114 0 1 1 0 002 0 9.01 9.01 0 00-9-9z"></path>
  </symbol>
  <symbol xmlns="http://www.w3.org/2000/svg" viewBox="0 0 24 24" id="user-add">
    <path d="M23 11h-2V9a1 1 0 00-2 0v2h-2a1 1 0 000 2h2v2a1 1 0 002 0v-2h2a1 1 0 000-2zM9 12a6 6 0 10-6-6 6.006 6.006 0 006 6zM9 2a4 4 0 11-4 4 4 4 0 014-4zm0 12a9.01 9.01 0 00-9 9 1 1 0 002 0 7 7 0 0114 0 1 1 0 002 0 9.01 9.01 0 00-9-9z"></path>
  </symbol>
  <symbol xmlns="http://www.w3.org/2000/svg" viewBox="0 0 24 24" id="user-delete">
    <path d="M17 24a1 1 0 01-1-1 7 7 0 00-14 0 1 1 0 01-2 0 9 9 0 0118 0 1 1 0 01-1 1zm6-11h-6a1 1 0 010-2h6a1 1 0 010 2zM9 12a6 6 0 116-6 6.006 6.006 0 01-6 6zM9 2a4 4 0 104 4 4 4 0 00-4-4z"></path>
  </symbol>
  <symbol xmlns="http://www.w3.org/2000/svg" viewBox="0 0 24 24" id="user-remove">
    <path d="M9 12a6 6 0 10-6-6 6.006 6.006 0 006 6zM9 2a4 4 0 11-4 4 4 4 0 014-4zm9 21a1 1 0 01-2 0 7 7 0 00-14 0 1 1 0 01-2 0 9 9 0 0118 0zm5.707-8.707a1 1 0 11-1.414 1.414L20.5 13.914l-1.793 1.793a1 1 0 01-1.414-1.414l1.793-1.793-1.793-1.793a1 1 0 011.414-1.414l1.793 1.793 1.793-1.793a1 1 0 011.414 1.414L21.914 12.5z"></path>
  </symbol>
  <symbol xmlns="http://www.w3.org/2000/svg" viewBox="0 0 24 24" id="users">
    <path d="M7.5 13A4.5 4.5 0 1112 8.5 4.505 4.505 0 017.5 13zm0-7A2.5 2.5 0 1010 8.5 2.5 2.5 0 007.5 6zM15 23v-.5a7.5 7.5 0 00-15 0v.5a1 1 0 002 0v-.5a5.5 5.5 0 0111 0v.5a1 1 0 002 0zm9-5a7 7 0 00-11.667-5.217 1 1 0 101.334 1.49A5 5 0 0122 18a1 1 0 002 0zm-6.5-9A4.5 4.5 0 1122 4.5 4.505 4.505 0 0117.5 9zm0-7A2.5 2.5 0 1020 4.5 2.5 2.5 0 0017.5 2z"></path>
  </symbol>
  <symbol xmlns="http://www.w3.org/2000/svg" viewBox="0 0 24 24" id="zoom-in">
    <path d="M23.707 22.293l-5.969-5.969a10.016 10.016 0 10-1.414 1.414l5.969 5.969a1 1 0 001.414-1.414zM10 18a8 8 0 118-8 8.009 8.009 0 01-8 8z"></path>
    <path d="M13 9h-2V7a1 1 0 00-2 0v2H7a1 1 0 000 2h2v2a1 1 0 002 0v-2h2a1 1 0 000-2z"></path>
  </symbol>
  <symbol xmlns="http://www.w3.org/2000/svg" viewBox="0 0 24 24" id="zoom-out">
    <path d="M23.707 22.293l-5.969-5.969a10.016 10.016 0 10-1.414 1.414l5.969 5.969a1 1 0 001.414-1.414zM10 18a8 8 0 118-8 8.009 8.009 0 01-8 8z"></path>
    <path d="M13 9H7a1 1 0 000 2h6a1 1 0 000-2z"></path>
  </symbol>
  <symbol xmlns="http://www.w3.org/2000/svg" viewBox="0 0 24 24" id="add">
    <path d="M12 0a12 12 0 1012 12A12.013 12.013 0 0012 0zm0 22a10 10 0 1110-10 10.011 10.011 0 01-10 10zm5-10a1 1 0 01-1 1h-3v3a1 1 0 01-2 0v-3H8a1 1 0 010-2h3V8a1 1 0 012 0v3h3a1 1 0 011 1z"></path>
  </symbol>
</svg>